<svg width="42" height="41" viewBox="0 0 42 41" fill="none" xmlns="http://www.w3.org/2000/svg">
<path d="M22.844 0C16.6373 0 11.144 3.2938 7.81884 8.3202C8.507 8.79744 9.17778 9.45189 9.82655 10.2932C12.3072 6.35026 16.3181 3.58388 20.9588 2.98919L22.8438 6.38003L24.7287 2.98912C31.8622 3.90301 37.5324 9.93034 38.3925 17.5134L35.2022 19.5175L38.3926 21.5216C37.8176 26.5915 35.0863 30.9563 31.2114 33.5723C31.4582 34.1704 31.5972 34.782 31.6218 35.4125C31.6399 35.8733 31.5952 36.3087 31.5053 36.722C37.2732 33.4274 41.2045 26.9524 41.2045 19.5179C41.2045 8.75542 32.9683 0 22.844 0ZM27.5294 32.144C23.2969 28.528 22.1133 30.3055 20.1929 32.3467C18.8521 33.7725 15.4592 30.7952 12.5296 27.6807C9.59972 24.5659 6.7995 20.9597 8.14013 19.5342C10.0607 17.4929 11.7323 16.234 8.32979 11.7359C4.9284 7.2361 2.66093 10.6907 0.800603 12.6685C-1.34715 14.9508 0.687426 23.4562 8.59506 31.8635C16.5038 40.2698 24.5047 42.4311 26.6512 40.1497C28.5113 38.1718 31.762 35.7617 27.5294 32.144Z" fill="#444444"/>
<path d="M21 9C21 7.89543 21.8954 7 23 7C24.1046 7 25 7.89543 25 9V19C25 20.1046 24.1046 21 23 21H21V9Z" fill="#444444"/>
<path d="M21 21V19C21 17.8954 21.8954 17 23 17H31C32.1046 17 33 17.8954 33 19C33 20.1046 32.1046 21 31 21H21Z" fill="#444444"/>
</svg>
