<svg width="169" height="36" viewBox="0 0 169 36" fill="none" xmlns="http://www.w3.org/2000/svg">
<path d="M0 30.946C0 30.946 8.75294 17.3988 25.3695 19.3747C25.3695 19.3747 35.2755 20.2757 36.3815 10.7498C36.3815 10.7498 35.1731 8.31771 33.8225 0.0539551C33.8225 0.0539551 37.9307 9.59332 47.6667 3.76987C47.6667 3.76987 44.9091 7.98494 38.7186 11.2017C38.7186 11.2017 41.4559 17.6352 34.8618 25.9594C34.8618 25.9594 27.8271 27.626 18.2038 34.0041C12.2121 36.0484 3.99566 35.9375 0 30.946Z" fill="#034C85"/>
<path d="M10.238 28.8258C12.4468 27.6281 17.197 24.2357 18.182 22.702C18.3096 22.5035 18.5524 22.4379 18.7915 22.4287C19.1245 22.416 19.4508 22.5126 19.4508 22.5126C19.4508 22.5126 20.6537 23.0148 19.4508 26.1762C18.2478 29.3376 14.7131 29.8029 10.238 28.8258Z" fill="#0A86E3"/>
<path d="M18.847 24.3308C18.7473 24.6508 18.4039 24.8298 18.0802 24.73L17.9135 24.6786C17.5894 24.5792 17.4076 24.239 17.5072 23.9187L19.4135 17.7921C19.5123 17.4722 19.8565 17.293 20.1802 17.3928L20.3477 17.4443C20.6714 17.5439 20.853 17.8841 20.7537 18.2041L18.847 24.3308Z" fill="#1274BE"/>
<path d="M17.0326 12.6272C16.2929 14.9803 17.6301 17.4795 20.0173 18.208C22.4063 18.9375 24.9416 17.6205 25.6808 15.2669C26.4203 12.9135 25.0846 10.4149 22.6965 9.68585C22.1919 9.53178 21.6812 9.46914 21.1819 9.48818C19.3173 9.55943 17.6162 10.7709 17.0326 12.6272Z" fill="#FF9200"/>
<path d="M16.9957 23.0147C16.9957 23.0147 19.3853 22.8649 19.6407 25.5105C19.6407 25.5105 20.8225 22.8484 19.0206 22.2498C18.065 22.0719 17.664 22.5514 16.9957 23.0147Z" fill="#0A86E3"/>
<path d="M37.4006 17.4072C35.4097 18.6239 33.779 21.6978 31.7213 24.5609C30.3748 26.4284 28.877 26.2179 28.4401 25.3823C27.9829 24.511 28.6637 22.9691 30.7717 23.1996C29.2374 20.9067 26.2866 20.361 24.2238 23.1945C21.5769 26.8291 19.4719 30.5836 15.2511 34.7986C19.3593 33.7448 21.9112 33.0279 25.1603 30.7604C28.1314 28.6871 31.2448 26.6138 34.4698 27.6297C27.7596 29.4317 29.5117 36.946 34.9115 31.4745C36.7204 29.6423 39.2749 28.3805 41.775 29.5873C38.2089 29.8874 38.5789 33.2364 41.0532 32.9563C45.1175 32.4955 45.777 27.9004 43.6697 25.0668C43.6897 27.1391 40.6066 27.4793 39.3256 25.9429C37.7971 24.1106 38.7729 21.0469 41.1548 20.2357C42.7143 19.7104 44.0904 20.5413 45.0204 21.7976C44.4181 18.3373 42.5154 16.5261 40.2448 16.5261C39.3359 16.5258 38.3677 16.8161 37.4006 17.4072Z" fill="#0A86E3"/>
<path d="M105.089 13.3028C105.628 13.8985 106.409 14.1963 107.433 14.1963C108.456 14.1963 109.238 13.8985 109.776 13.3028C110.315 12.7072 110.584 11.9697 110.584 11.0905C110.584 10.2112 110.302 9.47372 109.736 8.87808C109.197 8.28244 108.43 7.98462 107.433 7.98462C106.436 7.98462 105.655 8.29662 105.089 8.92062C104.551 9.51626 104.281 10.2395 104.281 11.0905C104.281 11.9414 104.551 12.6788 105.089 13.3028Z" fill="#FF9200"/>
<path d="M74.0245 13.3028C74.5633 13.8985 75.3444 14.1963 76.368 14.1963C77.3915 14.1963 78.1727 13.8985 78.7114 13.3028C79.2501 12.7072 79.5195 11.9697 79.5195 11.0905C79.5195 10.2112 79.2367 9.47372 78.671 8.87808C78.1323 8.28244 77.3646 7.98462 76.368 7.98462C75.3713 7.98462 74.5902 8.29662 74.0245 8.92062C73.4858 9.51626 73.2165 10.2395 73.2165 11.0905C73.2165 11.9414 73.4858 12.6788 74.0245 13.3028Z" fill="#FF9200"/>
<path d="M70.0347 25.2079C70.0347 26.58 69.8265 27.8197 69.4102 28.927C68.9938 30.0343 68.4183 30.9851 67.6835 31.7795C66.9488 32.5498 66.0794 33.1396 65.0752 33.5488C64.0711 33.958 62.9812 34.1626 61.8056 34.1626C60.6545 34.1626 59.6749 33.9941 58.8667 33.6571C58.0738 33.3029 57.3753 32.8213 56.771 32.2123C56.7485 32.1896 56.7178 32.1767 56.6856 32.1767C56.6294 32.1767 56.5809 32.2157 56.5696 32.27L56.3321 33.4109C56.2892 33.6173 56.1049 33.7654 55.8911 33.7654H53.1818C52.9332 33.7654 52.7316 33.5668 52.7316 33.3217V8.42831C52.7316 8.18327 52.9332 7.98462 53.1818 7.98462H57.1307C57.3793 7.98462 57.5809 8.18327 57.5809 8.42831V16.941C57.5809 17.3272 58.0599 17.5423 58.386 17.3283C58.7939 17.0606 59.2358 16.8347 59.7116 16.6504C60.5443 16.3375 61.426 16.181 62.3567 16.181C64.7568 16.181 66.6304 16.9754 67.9774 18.5641C69.3489 20.1529 70.0347 22.3675 70.0347 25.2079ZM65.0017 25.3163C65.0017 23.5349 64.6466 22.1869 63.9364 21.2722C63.2261 20.3334 62.222 19.864 60.9239 19.864C60.2382 19.864 59.6014 20.0325 59.0136 20.3695C58.4843 20.6513 58.0542 20.9722 57.7235 21.3321C57.6533 21.4086 57.6176 21.5091 57.6176 21.6123V29.1944C57.6176 29.3014 57.6559 29.4056 57.7311 29.4827C58.0303 29.7899 58.3966 30.05 58.8299 30.263C59.3442 30.5037 59.8831 30.6241 60.4464 30.6241C61.0341 30.6241 61.5974 30.5157 62.1363 30.2991C62.6996 30.0824 63.1894 29.7575 63.6057 29.3242C64.0466 28.8909 64.3895 28.3493 64.6344 27.6993C64.8793 27.0253 65.0017 26.231 65.0017 25.3163Z" fill="#FF9200"/>
<path d="M74.3922 33.7654C74.1436 33.7654 73.942 33.5668 73.942 33.3217V16.9858C73.942 16.7408 74.1436 16.5421 74.3922 16.5421H78.3778C78.6265 16.5421 78.828 16.7408 78.828 16.9858V33.3217C78.828 33.5668 78.6265 33.7654 78.3778 33.7654H74.3922Z" fill="#FF9200"/>
<path d="M95.0058 8.42831C95.0058 8.18327 95.2073 7.98462 95.456 7.98462H99.4416C99.6902 7.98462 99.8918 8.18327 99.8918 8.42831V33.3217C99.8918 33.5668 99.6902 33.7654 99.4416 33.7654H96.7466C96.5431 33.7654 96.3649 33.6309 96.3119 33.4374L95.9162 31.9926C95.8992 31.9308 95.8423 31.8878 95.7773 31.8878C95.7311 31.8878 95.6879 31.9098 95.6602 31.9462C95.2214 32.5239 94.5991 33.034 93.7935 33.4766C92.9852 33.9339 91.9199 34.1626 90.5973 34.1626C89.4952 34.1626 88.4666 33.958 87.5114 33.5488C86.5563 33.1396 85.7236 32.5498 85.0133 31.7795C84.3031 31.0092 83.7398 30.0704 83.3234 28.9631C82.9316 27.8558 82.7356 26.592 82.7356 25.1718C82.7356 23.7997 82.9193 22.56 83.2867 21.4527C83.6541 20.3454 84.1806 19.4066 84.8664 18.6363C85.5521 17.842 86.3971 17.2402 87.4012 16.831C88.4054 16.3977 89.5565 16.181 90.8545 16.181C91.6872 16.181 92.4709 16.3014 93.2057 16.5421C93.5651 16.6561 93.8889 16.7863 94.177 16.9326C94.5221 17.1079 95.0058 16.8772 95.0058 16.4946V8.42831ZM95.0058 21.2134C95.0058 21.1113 94.9709 21.0116 94.9017 20.9356C94.5984 20.6025 94.2167 20.3175 93.7567 20.0807C93.2424 19.8159 92.6791 19.6835 92.0668 19.6835C91.479 19.6835 90.9157 19.7798 90.3769 19.9723C89.8626 20.1649 89.3973 20.4778 88.9809 20.9111C88.5891 21.3203 88.2707 21.874 88.0258 22.5721C87.7808 23.2461 87.6584 24.0766 87.6584 25.0635C87.6584 26.0264 87.7686 26.8568 87.989 27.5549C88.2094 28.253 88.5033 28.8307 88.8707 29.2881C89.2381 29.7454 89.6667 30.0824 90.1565 30.2991C90.6708 30.5157 91.2096 30.6241 91.7729 30.6241C92.5566 30.6241 93.2179 30.4435 93.7567 30.0824C94.2841 29.7219 94.6827 29.3085 94.9524 28.8424C94.9886 28.78 95.0058 28.7089 95.0058 28.637V21.2134Z" fill="#FF9200"/>
<path d="M105.519 33.7654C105.271 33.7654 105.069 33.5668 105.069 33.3217V16.9858C105.069 16.7408 105.271 16.5421 105.519 16.5421H109.499C109.747 16.5421 109.949 16.7408 109.949 16.9858V33.3217C109.949 33.5668 109.747 33.7654 109.499 33.7654H105.519Z" fill="#0A86E3"/>
<path d="M119.853 27.8582C119.769 27.9414 119.721 28.0544 119.721 28.1722V33.3217C119.721 33.5668 119.52 33.7654 119.271 33.7654H115.329C115.08 33.7654 114.878 33.5668 114.878 33.3217V8.42831C114.878 8.18327 115.08 7.98462 115.329 7.98462H119.271C119.52 7.98462 119.721 8.18327 119.721 8.42831V22.0944C119.721 22.5064 120.241 22.6959 120.513 22.3831L125.457 16.6971C125.542 16.5987 125.667 16.5421 125.799 16.5421H130.475C130.866 16.5421 131.071 17.001 130.807 17.2856L124.992 23.5372C124.849 23.6906 124.834 23.921 124.955 24.0915L131.332 33.0672C131.541 33.3613 131.328 33.7654 130.964 33.7654H126.308C126.158 33.7654 126.018 33.6921 125.934 33.5698L121.457 27.026C121.299 26.7948 120.966 26.7631 120.766 26.9601L119.853 27.8582Z" fill="#0A86E3"/>
<path d="M134.681 18.4349C134.57 18.2245 134.646 17.9639 134.858 17.8511C135.798 17.3506 136.785 16.9624 137.82 16.6865C138.994 16.3495 140.242 16.181 141.562 16.181C142.614 16.181 143.568 16.3014 144.424 16.5421C145.305 16.7828 146.051 17.168 146.662 17.6976C147.298 18.2031 147.775 18.865 148.093 19.6835C148.435 20.4778 148.607 21.4407 148.607 22.5721V33.3217C148.607 33.5668 148.405 33.7654 148.156 33.7654H145.181C144.974 33.7654 144.793 33.6259 144.744 33.4274L144.409 32.0838C144.396 32.0323 144.35 31.9961 144.296 31.9961C144.261 31.9961 144.228 32.0116 144.205 32.038C143.648 32.6921 142.938 33.2077 142.076 33.5849C141.22 33.97 140.217 34.1626 139.068 34.1626C138.114 34.1626 137.27 34.0302 136.536 33.7654C135.802 33.4766 135.179 33.1034 134.665 32.6461C134.151 32.1646 133.76 31.599 133.491 30.949C133.246 30.2991 133.124 29.601 133.124 28.8548C133.124 27.8678 133.332 27.0253 133.748 26.3273C134.188 25.6051 134.787 25.0154 135.546 24.558C136.304 24.1006 137.184 23.7636 138.187 23.547C139.214 23.3303 140.315 23.222 141.489 23.222H143.24C143.489 23.222 143.69 23.0234 143.69 22.7783V22.1749C143.69 21.3805 143.434 20.8028 142.92 20.4417C142.431 20.0566 141.734 19.864 140.829 19.864C140.119 19.864 139.386 19.9723 138.627 20.189C138.004 20.3729 137.32 20.6523 136.573 21.0272C136.35 21.1395 136.074 21.057 135.958 20.8379L134.681 18.4349ZM143.727 26.6731C143.727 26.424 143.519 26.2237 143.266 26.2295L142.149 26.255C140.657 26.3032 139.618 26.5559 139.031 27.0133C138.444 27.4466 138.15 27.9762 138.15 28.602C138.15 29.4205 138.395 29.9862 138.884 30.2991C139.398 30.588 139.973 30.7324 140.609 30.7324C141.245 30.7324 141.844 30.5518 142.406 30.1908C142.951 29.856 143.369 29.4694 143.661 29.0312C143.705 28.9639 143.727 28.8845 143.727 28.804V26.6731Z" fill="#0A86E3"/>
<path d="M157.627 33.3217C157.627 33.5668 157.425 33.7654 157.176 33.7654H153.197C152.949 33.7654 152.747 33.5668 152.747 33.3217V16.9858C152.747 16.7408 152.949 16.5421 153.197 16.5421H156.216C156.42 16.5421 156.599 16.6781 156.651 16.8731L156.947 17.9846C157.036 18.3187 157.464 18.4308 157.727 18.2029C158.372 17.6445 159.06 17.1992 159.791 16.8671C160.77 16.4097 161.846 16.181 163.02 16.181C164.952 16.181 166.432 16.6986 167.459 17.7337C168.486 18.7687 169 20.2732 169 22.2471V33.3217C169 33.5668 168.798 33.7654 168.55 33.7654H164.571C164.322 33.7654 164.12 33.5668 164.12 33.3217V22.7526C164.12 21.862 163.9 21.1639 163.46 20.6584C163.02 20.1288 162.372 19.864 161.516 19.864C160.88 19.864 160.207 20.0445 159.498 20.4056C158.862 20.7187 158.278 21.1461 157.747 21.6878C157.669 21.7679 157.627 21.8757 157.627 21.987V33.3217Z" fill="#0A86E3"/>
</svg>
