<svg width="80" height="80" viewBox="0 0 80 80" fill="none" xmlns="http://www.w3.org/2000/svg">
<g filter="url(#filter0_d)">
<circle cx="40" cy="36" r="35.5" fill="white" stroke="#CECECE"/>
<path d="M46.8565 26.3375L36.9557 40.6844L35.5526 52.1619L50.2142 53.9997L52.6563 33.7182L46.8565 26.3375Z" fill="#FFD15C"/>
<path d="M57.0746 18.9009C56.5193 18.3457 55.7549 18.0379 54.9726 18.0036C54.1211 17.9662 53.2483 18.253 52.6004 18.9009L45.2817 26.2438L46.007 26.9691L46.7731 27.7352L48.9464 25.5369C51.0086 26.9003 53.7948 26.655 55.5832 24.8666L57.0746 23.3752C58.3085 22.1412 58.3085 20.1348 57.0746 18.9009ZM55.5832 21.8837L54.0918 23.3751C53.1184 24.3484 51.6662 24.5544 50.4899 23.9931L54.0918 20.3923C54.5037 19.9804 55.1712 19.9804 55.5832 20.3923C55.9941 20.8033 55.9941 21.4727 55.5832 21.8837Z" fill="#516373"/>
<path d="M48.9464 25.5369C51.0086 26.9003 53.7948 26.655 55.5832 24.8666L57.0746 23.3752C58.3085 22.1413 58.3085 20.1349 57.0746 18.901C56.5193 18.3457 55.7549 18.038 54.9726 18.0037L46.007 26.9692L46.7731 27.7353L48.9464 25.5369ZM54.0918 20.3924C54.5038 19.9804 55.1713 19.9804 55.5832 20.3924C55.9942 20.8034 55.9942 21.4728 55.5832 21.8838L54.0918 23.3752C53.1185 24.3485 51.6663 24.5545 50.49 23.9932L54.0918 20.3924Z" fill="#3E4D59"/>
<path d="M47.0302 25.9449H36.6412L22 40.5354L27.2204 45.7558L32.4408 50.9762L47.0312 36.3755V25.9449H47.0302Z" fill="#0074B1"/>
<path d="M47.0312 36.3755V25.9449L27.2204 45.7558L32.4407 50.9762L47.0312 36.3755Z" fill="#0082C6"/>
<path d="M41.5522 32.955L40.7867 32.1895L40.0608 31.4636L38.4185 33.1059C37.2452 32.5533 35.8111 32.7321 34.8409 33.7007C33.6137 34.9278 33.6076 36.9193 34.8212 38.1549C35.283 38.6252 35.2271 39.281 34.8409 39.6673C34.433 40.0751 33.7519 40.0909 33.3303 39.6458C32.9396 39.2333 32.9454 38.58 33.3495 38.1759L31.8561 36.6845C30.8892 37.6538 30.7103 39.0876 31.2629 40.2614L29.62 41.9043L30.3459 42.6302L31.1114 43.3957L32.7535 41.7536C34.1216 42.3999 35.4744 42.0166 36.3323 41.1587C37.4674 40.0235 37.6701 38.0984 36.3132 36.663C35.9225 36.2496 35.9282 35.5973 36.3323 35.1931C36.7355 34.7879 37.3914 34.7831 37.8029 35.1733C38.2384 35.5863 38.238 36.2692 37.8237 36.6845L39.3151 38.1759C40.2846 37.2065 40.464 35.7717 39.9102 34.597L41.5522 32.955Z" fill="white"/>
<path d="M37.8237 36.6846L39.3151 38.176C40.2846 37.2065 40.464 35.7718 39.9102 34.5971L41.5522 32.9551L40.7867 32.1896L37.8029 35.1734C38.2384 35.5864 38.238 36.2692 37.8237 36.6846Z" fill="white"/>
<path d="M32.7535 41.7538C34.1216 42.4001 35.4743 42.0168 36.3323 41.1588C37.4674 40.0237 37.6701 38.0986 36.3132 36.6632L34.8212 38.1552C35.283 38.6255 35.2271 39.2813 34.8409 39.6675C34.433 40.0754 33.7519 40.0912 33.3303 39.6461L30.3459 42.6305L31.1114 43.396L32.7535 41.7538Z" fill="white"/>
</g>
<defs>
<filter id="filter0_d" x="0" y="0" width="80" height="80" filterUnits="userSpaceOnUse" color-interpolation-filters="sRGB">
<feFlood flood-opacity="0" result="BackgroundImageFix"/>
<feColorMatrix in="SourceAlpha" type="matrix" values="0 0 0 0 0 0 0 0 0 0 0 0 0 0 0 0 0 0 127 0"/>
<feOffset dy="4"/>
<feGaussianBlur stdDeviation="2"/>
<feColorMatrix type="matrix" values="0 0 0 0 0 0 0 0 0 0 0 0 0 0 0 0 0 0 0.25 0"/>
<feBlend mode="normal" in2="BackgroundImageFix" result="effect1_dropShadow"/>
<feBlend mode="normal" in="SourceGraphic" in2="effect1_dropShadow" result="shape"/>
</filter>
</defs>
</svg>
