<svg width="72" height="72" viewBox="0 0 72 72" fill="none" xmlns="http://www.w3.org/2000/svg">
<g filter="url(#filter0_d)">
<circle cx="36" cy="36" r="35.5" fill="white" stroke="#CECECE"/>
<path d="M47.8347 49.2903C51.1548 46.1502 53.2266 41.7039 53.2266 36.7734C53.2266 27.2594 45.514 19.5468 36 19.5468C26.486 19.5468 18.7734 27.2594 18.7734 36.7734C18.7734 46.2874 26.486 54 36 54C36.7455 54 37.48 53.9526 38.2006 53.8607L47.8347 49.2903Z" fill="#FFD15C"/>
<path d="M45.9025 43.7037C45.7514 43.1481 45.6981 42.5705 45.745 41.9967L46.0264 39.347C46.1637 37.6844 45.9103 36.0187 45.1743 34.5217C43.2727 30.6536 43.7089 30.3729 43.6499 26.5339C43.6499 25.7497 43.0141 25.1139 42.2298 25.1139C41.4456 25.1139 40.8098 25.7497 40.8098 26.5339C40.8098 42.1455 40.8388 40.9999 40.7426 41.4577V43.5019C40.7426 45.2243 39.3413 46.6257 37.6189 46.6257C36.475 46.6257 32.5302 46.6257 29.8458 46.6257C31.04 48.2864 32.6737 49.5868 34.5696 50.3742C34.5813 50.3791 34.5931 50.384 34.6048 50.389C36.0696 51.0077 37.7052 52.2422 37.9785 53.774L38.0049 53.8834C41.8623 53.4362 45.3309 51.7154 47.9794 49.1516L45.9025 43.7037Z" fill="#F9BA8F"/>
<path d="M24.5716 25.1636L24.1391 24.7628C23.4723 24.1451 22.4214 24.1852 21.8036 24.8519C21.1859 25.5186 21.2259 26.5696 21.8926 27.1874L24.5716 29.6696V25.1636Z" fill="#F9BA8F"/>
<path d="M22.7716 25.9452C22.3626 25.5662 22.1905 25.0244 22.2604 24.5081C22.0934 24.5935 21.938 24.707 21.8036 24.8519C21.1859 25.5187 21.2259 26.5696 21.8926 27.1874L24.5716 29.6696V27.6131L22.7716 25.9452Z" fill="#FCAD6D"/>
<path d="M46.0319 44.0428C45.4453 48.0876 41.9642 51.195 37.7568 51.195C37.0304 51.195 36.3257 51.1022 35.6538 50.9282C36.7678 51.6093 37.7699 52.6048 37.9784 53.7738L38.0049 53.8832C41.8623 53.436 45.3308 51.7152 47.9794 49.1514L46.0319 44.0428Z" fill="#FF8E47"/>
<path d="M38.3635 46.6928H26.9564C25.6074 46.6928 24.5101 45.5953 24.5101 44.2464V20.4464C24.5101 19.0974 25.6074 18 26.9564 18H38.3635C39.7125 18 40.8098 19.0974 40.8098 20.4464V44.2465C40.8098 45.5953 39.7124 46.6928 38.3635 46.6928Z" fill="#2A428C"/>
<path d="M26.9564 18C25.6074 18 24.5101 19.0974 24.5101 20.4463V44.2464C24.5101 45.5953 25.6075 46.6928 26.9564 46.6928H30.357C29.6022 45.9229 30.4826 45.1707 30.4826 45.1707C29.2403 44.8448 29.3458 43.5393 29.3458 43.5393C29.3458 43.5393 29.3458 23.5884 29.3458 22.3404C29.3458 21.0923 30.6136 20.7771 30.6136 20.7771C30.1142 20.2778 30.6136 19.753 30.6136 19.753V18.9075C30.1529 18.6156 30.2436 18.2181 30.3439 18L26.9564 18Z" fill="#142766"/>
<path d="M30.8579 19.753H30.6136C30.3801 19.753 30.1908 19.5638 30.1908 19.3303C30.1908 19.0968 30.3801 18.9075 30.6136 18.9075H30.8579C31.0914 18.9075 31.2806 19.0968 31.2806 19.3303C31.2806 19.5638 31.0914 19.753 30.8579 19.753Z" fill="#3C58A0"/>
<path d="M34.648 19.753H32.3008C32.0673 19.753 31.878 19.5638 31.878 19.3303C31.878 19.0968 32.0673 18.9075 32.3008 18.9075H34.648C34.8815 18.9075 35.0708 19.0968 35.0708 19.3303C35.0708 19.5638 34.8815 19.753 34.648 19.753Z" fill="#3C58A0"/>
<path d="M38.3636 19.522H36.6491C36.3295 19.522 36.0705 19.7811 36.0705 20.1006C36.0705 20.4727 35.7661 20.7771 35.3941 20.7771H29.9261C29.554 20.7771 29.2496 20.4727 29.2496 20.1006C29.2496 19.7811 28.9905 19.522 28.6709 19.522H26.9564C26.4459 19.522 26.0321 19.9358 26.0321 20.4463V44.2464C26.0321 44.7569 26.4459 45.1707 26.9564 45.1707H38.3636C38.874 45.1707 39.2879 44.7569 39.2879 44.2464C39.2879 41.7982 39.2879 21.0997 39.2879 20.4463C39.2879 19.9358 38.874 19.522 38.3636 19.522Z" fill="#73C3F9"/>
<path d="M30.4825 45.1708C30.3067 44.4124 31.1865 44.2352 31.1865 44.2352C31.1865 44.2352 31.746 39.3338 31.1865 38.7742C30.6269 38.2147 31.1865 37.6863 31.1865 37.6863C31.1865 37.6863 31.7978 32.8367 31.1865 32.2253C30.5752 31.614 31.1865 31.1374 31.1865 31.1374V25.6764C30.0916 24.9851 30.6675 23.9904 30.6675 23.9904V22.4242C29.8401 21.5968 30.6132 20.7775 30.6135 20.7772H29.926C29.554 20.7772 29.2495 20.4729 29.2495 20.1008C29.2495 19.7812 28.9904 19.5221 28.6708 19.5221H26.9564C26.4459 19.5221 26.0321 19.9359 26.0321 20.4464V44.2466C26.0321 44.757 26.4459 45.1709 26.9564 45.1709H30.4825V45.1708Z" fill="#4FABF7"/>
<path d="M29.221 23.9902H36.0989C36.5314 23.9902 36.882 23.6396 36.882 23.2071C36.882 22.7747 36.5314 22.4241 36.0989 22.4241H29.221C28.7885 22.4241 28.4379 22.7747 28.4379 23.2071C28.4379 23.6397 28.7885 23.9902 29.221 23.9902Z" fill="#E9EFFF"/>
<path d="M29.2211 22.4241H30.6675V23.9903H29.2211C28.7886 23.9903 28.438 23.6397 28.438 23.2072C28.4379 22.7746 28.7886 22.4241 29.2211 22.4241Z" fill="#9BD8F9"/>
<path d="M37.4888 31.1374H27.8312C27.4438 31.1374 27.1268 30.8204 27.1268 30.433V26.3808C27.1268 25.9934 27.4438 25.6764 27.8312 25.6764H37.4888C37.8763 25.6764 38.1932 25.9934 38.1932 26.3808V30.433C38.1932 30.8204 37.8763 31.1374 37.4888 31.1374Z" fill="#E9EFFF"/>
<path d="M37.4888 37.6862H27.8312C27.4438 37.6862 27.1268 37.3692 27.1268 36.9818V32.9296C27.1268 32.5422 27.4438 32.2252 27.8312 32.2252H37.4888C37.8763 32.2252 38.1932 32.5422 38.1932 32.9296V36.9818C38.1932 37.3692 37.8763 37.6862 37.4888 37.6862Z" fill="#E9EFFF"/>
<path d="M37.4888 44.2353H27.8312C27.4438 44.2353 27.1268 43.9183 27.1268 43.5309V39.4787C27.1268 39.0913 27.4438 38.7743 27.8312 38.7743H37.4888C37.8763 38.7743 38.1932 39.0913 38.1932 39.4787V43.5309C38.1932 43.9183 37.8763 44.2353 37.4888 44.2353Z" fill="#E9EFFF"/>
<path d="M37.4888 31.1374H27.8312C27.4438 31.1374 27.1268 30.8204 27.1268 30.433V26.3808C27.1268 25.9934 27.4438 25.6764 27.8312 25.6764H37.4888C37.8763 25.6764 38.1932 25.9934 38.1932 26.3808V30.433C38.1932 30.8204 37.8763 31.1374 37.4888 31.1374Z" fill="#E9EFFF"/>
<path d="M37.4888 37.6862H27.8312C27.4438 37.6862 27.1268 37.3692 27.1268 36.9818V32.9296C27.1268 32.5422 27.4438 32.2252 27.8312 32.2252H37.4888C37.8763 32.2252 38.1932 32.5422 38.1932 32.9296V36.9818C38.1932 37.3692 37.8763 37.6862 37.4888 37.6862Z" fill="#E9EFFF"/>
<path d="M37.4888 44.2353H27.8312C27.4438 44.2353 27.1268 43.9183 27.1268 43.5309V39.4787C27.1268 39.0913 27.4438 38.7743 27.8312 38.7743H37.4888C37.8763 38.7743 38.1932 39.0913 38.1932 39.4787V43.5309C38.1932 43.9183 37.8763 44.2353 37.4888 44.2353Z" fill="#E9EFFF"/>
<path d="M30.4821 30.4329V26.3808C30.4821 25.9934 30.7991 25.6764 31.1865 25.6764H27.8312C27.4438 25.6764 27.1268 25.9934 27.1268 26.3808V30.4329C27.1268 30.8203 27.4438 31.1373 27.8312 31.1373H31.1865C30.7991 31.1373 30.4821 30.8203 30.4821 30.4329Z" fill="#D3DCFB"/>
<path d="M30.4821 36.9818V32.9296C30.4821 32.5422 30.7991 32.2252 31.1865 32.2252H27.8312C27.4438 32.2252 27.1268 32.5422 27.1268 32.9296V36.9818C27.1268 37.3692 27.4438 37.6862 27.8312 37.6862H31.1865C30.7991 37.6862 30.4821 37.3692 30.4821 36.9818Z" fill="#D3DCFB"/>
<path d="M30.4821 43.5307V39.4786C30.4821 39.0911 30.7991 38.7742 31.1865 38.7742H27.8312C27.4438 38.7742 27.1268 39.0911 27.1268 39.4786V43.5307C27.1268 43.9182 27.4438 44.2351 27.8312 44.2351H31.1865C30.7991 44.2351 30.4821 43.9182 30.4821 43.5307Z" fill="#D3DCFB"/>
<path d="M32.2792 27.9413H29.4548C29.1636 27.9413 28.9275 27.7052 28.9275 27.4139C28.9275 27.1226 29.1636 26.8866 29.4548 26.8866H32.2792C32.5704 26.8866 32.8065 27.1226 32.8065 27.4139C32.8065 27.7052 32.5704 27.9413 32.2792 27.9413Z" fill="#3C58A0"/>
<path d="M35.8651 29.927H29.4548C29.1636 29.927 28.9275 29.691 28.9275 29.3997C28.9275 29.1084 29.1636 28.8723 29.4548 28.8723H35.8651C36.1564 28.8723 36.3925 29.1084 36.3925 29.3997C36.3925 29.691 36.1564 29.927 35.8651 29.927Z" fill="#BEC8F7"/>
<path d="M34.4823 27.9413H34.0838C33.7926 27.9413 33.5565 27.7052 33.5565 27.4139C33.5565 27.1226 33.7926 26.8866 34.0838 26.8866H34.4823C34.7735 26.8866 35.0096 27.1226 35.0096 27.4139C35.0096 27.7052 34.7736 27.9413 34.4823 27.9413Z" fill="#BEC8F7"/>
<path d="M32.2792 34.4902H29.4548C29.1636 34.4902 28.9275 34.2542 28.9275 33.9629C28.9275 33.6716 29.1636 33.4355 29.4548 33.4355H32.2792C32.5704 33.4355 32.8065 33.6716 32.8065 33.9629C32.8065 34.2542 32.5704 34.4902 32.2792 34.4902Z" fill="#3C58A0"/>
<path d="M35.8651 36.476H29.4548C29.1636 36.476 28.9275 36.2399 28.9275 35.9486C28.9275 35.6573 29.1636 35.4213 29.4548 35.4213H35.8651C36.1564 35.4213 36.3925 35.6573 36.3925 35.9486C36.3925 36.2398 36.1564 36.476 35.8651 36.476Z" fill="#BEC8F7"/>
<path d="M34.4823 34.4902H34.0838C33.7926 34.4902 33.5565 34.2542 33.5565 33.9629C33.5565 33.6716 33.7926 33.4355 34.0838 33.4355H34.4823C34.7735 33.4355 35.0096 33.6716 35.0096 33.9629C35.0096 34.2542 34.7736 34.4902 34.4823 34.4902Z" fill="#BEC8F7"/>
<path d="M32.2792 41.0391H29.4548C29.1636 41.0391 28.9275 40.803 28.9275 40.5117C28.9275 40.2204 29.1636 39.9844 29.4548 39.9844H32.2792C32.5704 39.9844 32.8065 40.2204 32.8065 40.5117C32.8065 40.803 32.5704 41.0391 32.2792 41.0391Z" fill="#3C58A0"/>
<path d="M35.8651 43.0248H29.4548C29.1636 43.0248 28.9275 42.7887 28.9275 42.4974C28.9275 42.2061 29.1636 41.9701 29.4548 41.9701H35.8651C36.1564 41.9701 36.3925 42.2061 36.3925 42.4974C36.3925 42.7887 36.1564 43.0248 35.8651 43.0248Z" fill="#BEC8F7"/>
<path d="M34.4823 41.0391H34.0838C33.7926 41.0391 33.5565 40.803 33.5565 40.5117C33.5565 40.2204 33.7926 39.9844 34.0838 39.9844H34.4823C34.7735 39.9844 35.0096 40.2204 35.0096 40.5117C35.0096 40.803 34.7736 41.0391 34.4823 41.0391Z" fill="#BEC8F7"/>
<path d="M26.9767 33.8794C26.4331 34.4661 25.517 34.501 24.9303 33.9574L22.5048 31.71C21.9181 31.1664 21.8832 30.2502 22.4268 29.6636C22.9704 29.077 23.8865 29.042 24.4732 29.5856L26.8987 31.8331C27.4854 32.3767 27.5203 33.2928 26.9767 33.8794Z" fill="#F9BA8F"/>
<path d="M25.9282 32.936L23.5026 30.6886C23.0969 30.3127 22.9555 29.7586 23.0864 29.2585C22.8418 29.3291 22.6124 29.4635 22.4268 29.6638C21.8832 30.2504 21.9181 31.1667 22.5048 31.7102L24.9303 33.9577C25.517 34.5012 26.4331 34.4663 26.9767 33.8797C27.1443 33.6988 27.2566 33.4864 27.3149 33.2633C26.8433 33.3994 26.3145 33.294 25.9282 32.936Z" fill="#FCAD6D"/>
<path d="M26.9767 41.7791C26.4331 42.3657 25.517 42.4007 24.9303 41.8571L22.5048 39.6096C21.9181 39.0661 21.8832 38.1499 22.4268 37.5632C22.9704 36.9766 23.8865 36.9417 24.4732 37.4853L26.8987 39.7327C27.4854 40.2762 27.5203 41.1925 26.9767 41.7791Z" fill="#F9BA8F"/>
<path d="M25.9282 40.8354L23.5026 38.588C23.0969 38.2121 22.9555 37.658 23.0864 37.158C22.8418 37.2286 22.6124 37.3629 22.4268 37.5632C21.8832 38.1499 21.9181 39.0661 22.5048 39.6096L24.9303 41.8571C25.517 42.4006 26.4331 42.3657 26.9767 41.7791C27.1443 41.5982 27.2566 41.3858 27.3149 41.1627C26.8433 41.2989 26.3145 41.1934 25.9282 40.8354Z" fill="#FCAD6D"/>
<path d="M26.9767 37.8293C26.4331 38.4159 25.517 38.4508 24.9303 37.9073L22.5048 35.6598C21.9181 35.1163 21.8832 34.2 22.4268 33.6134C22.9704 33.0268 23.8865 32.9918 24.4732 33.5354L26.8987 35.7829C27.4854 36.3264 27.5203 37.2426 26.9767 37.8293Z" fill="#F9BA8F"/>
<path d="M25.9282 36.8856L23.5026 34.6381C23.0969 34.2623 22.9555 33.7082 23.0864 33.2081C22.8418 33.2787 22.6123 33.4131 22.4268 33.6134C21.8832 34.2 21.9181 35.1162 22.5048 35.6598L24.9303 37.9073C25.517 38.4508 26.4331 38.4159 26.9767 37.8293C27.1443 37.6484 27.2566 37.4359 27.3149 37.2129C26.8433 37.349 26.3145 37.2436 25.9282 36.8856Z" fill="#FCAD6D"/>
<path d="M47.6766 24.1093C46.7415 25.2987 45.8976 27.0075 46.5723 28.8724C47.8379 32.3706 49.8536 35.3404 48.916 40.5118C48.4906 42.8582 49.8865 43.8418 51.5384 44.2163C52.6197 41.9634 53.2265 39.4394 53.2265 36.7734C53.2266 31.7652 51.0887 27.2569 47.6766 24.1093Z" fill="#FFC42F"/>
</g>
<defs>
<filter id="filter0_d" x="-4" y="0" width="80" height="80" filterUnits="userSpaceOnUse" color-interpolation-filters="sRGB">
<feFlood flood-opacity="0" result="BackgroundImageFix"/>
<feColorMatrix in="SourceAlpha" type="matrix" values="0 0 0 0 0 0 0 0 0 0 0 0 0 0 0 0 0 0 127 0"/>
<feOffset dy="4"/>
<feGaussianBlur stdDeviation="2"/>
<feColorMatrix type="matrix" values="0 0 0 0 0 0 0 0 0 0 0 0 0 0 0 0 0 0 0.25 0"/>
<feBlend mode="normal" in2="BackgroundImageFix" result="effect1_dropShadow"/>
<feBlend mode="normal" in="SourceGraphic" in2="effect1_dropShadow" result="shape"/>
</filter>
</defs>
</svg>
