<svg width="80" height="80" viewBox="0 0 80 80" fill="none" xmlns="http://www.w3.org/2000/svg">
<g filter="url(#filter0_d)">
<circle cx="40" cy="36" r="35.5" fill="white" stroke="#CECECE"/>
<path d="M26.4868 53.507C25.9075 53.507 25.3519 53.2769 24.9423 52.8673C24.5327 52.4576 24.3026 51.9021 24.3026 51.3228V37.1433H28.6707V51.3228C28.6707 51.6096 28.6143 51.8936 28.5045 52.1586C28.3948 52.4236 28.2339 52.6644 28.0311 52.8672C27.8283 53.0701 27.5876 53.231 27.3226 53.3407C27.0576 53.4505 26.7736 53.507 26.4868 53.507Z" fill="#3C3A41"/>
<path d="M31.2919 44.0157C30.5967 44.0157 29.93 43.7395 29.4384 43.2479C28.9469 42.7563 28.6707 42.0896 28.6707 41.3944C28.6708 40.6993 28.947 40.0326 29.4385 39.5411C29.9301 39.0496 30.5968 38.7734 31.2919 38.7734C31.9871 38.7734 32.6538 39.0496 33.1453 39.5411C33.6369 40.0326 33.9131 40.6993 33.9132 41.3944C33.9132 42.0896 33.637 42.7563 33.1454 43.2479C32.6539 43.7395 31.9871 44.0157 31.2919 44.0157Z" fill="#159CE4"/>
<path d="M27.6115 37.1433H25.3615C25.3671 32.1984 27.3339 27.4577 30.8304 23.9611C34.327 20.4646 39.0677 18.4978 44.0126 18.4922H44.6229C44.9213 18.4922 45.2074 18.6107 45.4184 18.8217C45.6294 19.0327 45.7479 19.3188 45.7479 19.6172C45.7479 19.9156 45.6294 20.2017 45.4184 20.4127C45.2074 20.6237 44.9213 20.7422 44.6229 20.7422H44.0126C39.6642 20.7471 35.4954 22.4766 32.4207 25.5514C29.3459 28.6261 27.6164 32.7949 27.6115 37.1433Z" fill="#787780"/>
<path d="M24.3026 47.0039H28.671V49.3135H24.3026V47.0039Z" fill="#FF9F22"/>
<path d="M52.4273 36.9799C52.2968 36.9799 52.1716 36.928 52.0793 36.8357C51.987 36.7434 51.9351 36.6182 51.9351 36.4877V34.6641C51.9345 34.0365 51.685 33.4347 51.2412 32.9909C50.7975 32.5471 50.1958 32.2975 49.5681 32.2968H46.7781C46.3354 32.3008 45.8963 32.2171 45.4861 32.0505C45.0759 31.8839 44.7028 31.6377 44.3883 31.3261C44.0739 31.0145 43.8242 30.6436 43.6539 30.235C43.4835 29.8263 43.3958 29.388 43.3958 28.9453C43.3958 28.5025 43.4835 28.0642 43.6539 27.6556C43.8242 27.2469 44.0739 26.8761 44.3883 26.5645C44.7028 26.2528 45.0759 26.0066 45.4861 25.84C45.8963 25.6734 46.3354 25.5897 46.7781 25.5937H49.9664C50.6937 25.5937 51.3912 25.3048 51.9054 24.7906C52.4197 24.2763 52.7086 23.5788 52.7086 22.8516C52.7086 22.1243 52.4197 21.4268 51.9054 20.9125C51.3912 20.3983 50.6937 20.1094 49.9664 20.1094H45.7476C45.6171 20.1094 45.4919 20.0575 45.3996 19.9652C45.3073 19.8729 45.2555 19.7477 45.2555 19.6172C45.2555 19.4867 45.3073 19.3615 45.3996 19.2692C45.4919 19.1769 45.6171 19.125 45.7476 19.125H49.9664C50.9547 19.125 51.9026 19.5176 52.6015 20.2165C53.3003 20.9154 53.693 21.8632 53.693 22.8516C53.693 23.8399 53.3003 24.7878 52.6015 25.4866C51.9026 26.1855 50.9547 26.5781 49.9664 26.5781H46.7781C46.4651 26.5747 46.1545 26.6334 45.8643 26.7508C45.5741 26.8683 45.3101 27.0421 45.0876 27.2622C44.865 27.4824 44.6883 27.7445 44.5677 28.0334C44.4471 28.3223 44.3851 28.6322 44.3851 28.9453C44.3851 29.2583 44.4471 29.5683 44.5677 29.8571C44.6883 30.146 44.865 30.4081 45.0876 30.6283C45.3101 30.8484 45.5741 31.0223 45.8643 31.1397C46.1545 31.2571 46.4651 31.3158 46.7781 31.3124H49.5681C50.4567 31.3134 51.3086 31.6669 51.9369 32.2952C52.5652 32.9236 52.9185 33.7755 52.9195 34.6641V36.4877C52.9196 36.5523 52.9068 36.6164 52.8821 36.6761C52.8574 36.7358 52.8212 36.7901 52.7754 36.8358C52.7297 36.8815 52.6755 36.9178 52.6157 36.9425C52.556 36.9672 52.492 36.9799 52.4273 36.9799Z" fill="#81C8EE"/>
<path d="M52.4276 48.8965C52.4276 48.8965 50.3525 49.9287 50.3525 51.2027C50.378 52.0244 50.6312 52.8228 51.0838 53.509L52.4264 51.2027L53.7689 53.509C54.222 52.823 54.4757 52.0245 54.5015 51.2027C54.5026 49.9287 52.4276 48.8965 52.4276 48.8965Z" fill="#3C3A41"/>
<path d="M49.1983 42.0294C49.1715 42.2493 49.1579 42.4706 49.1575 42.692C49.1575 46.1188 52.4276 48.8964 52.4276 48.8964C52.4276 48.8964 55.6974 46.1188 55.6974 42.692C55.697 42.4706 55.6834 42.2493 55.6566 42.0294C53.5585 42.7153 51.2964 42.7153 49.1983 42.0294Z" fill="#FF9F22"/>
<path d="M52.4276 36.4877C52.4276 36.4877 49.5718 38.9146 49.1983 42.0283C51.2964 42.7142 53.5585 42.7142 55.6566 42.0283C55.2834 38.9146 52.4276 36.4877 52.4276 36.4877Z" fill="#FEC478"/>
<path d="M52.6843 40.7219H52.1705C52.04 40.7219 51.9148 40.6701 51.8225 40.5778C51.7302 40.4855 51.6783 40.3603 51.6783 40.2297C51.6783 40.0992 51.7302 39.974 51.8225 39.8817C51.9148 39.7894 52.04 39.7375 52.1705 39.7375H52.6843C52.8149 39.7375 52.9401 39.7894 53.0324 39.8817C53.1247 39.974 53.1765 40.0992 53.1765 40.2297C53.1765 40.3603 53.1247 40.4855 53.0324 40.5778C52.9401 40.6701 52.8149 40.7219 52.6843 40.7219Z" fill="#3C3A41"/>
</g>
<defs>
<filter id="filter0_d" x="0" y="0" width="80" height="80" filterUnits="userSpaceOnUse" color-interpolation-filters="sRGB">
<feFlood flood-opacity="0" result="BackgroundImageFix"/>
<feColorMatrix in="SourceAlpha" type="matrix" values="0 0 0 0 0 0 0 0 0 0 0 0 0 0 0 0 0 0 127 0"/>
<feOffset dy="4"/>
<feGaussianBlur stdDeviation="2"/>
<feColorMatrix type="matrix" values="0 0 0 0 0 0 0 0 0 0 0 0 0 0 0 0 0 0 0.25 0"/>
<feBlend mode="normal" in2="BackgroundImageFix" result="effect1_dropShadow"/>
<feBlend mode="normal" in="SourceGraphic" in2="effect1_dropShadow" result="shape"/>
</filter>
</defs>
</svg>
