<svg width="80" height="80" viewBox="0 0 80 80" fill="none" xmlns="http://www.w3.org/2000/svg">
<g filter="url(#filter0_d)">
<circle cx="40" cy="36" r="35.5" fill="white" stroke="#CECECE"/>
<path d="M57.9718 43.3699L55.3122 23.8293C55.085 22.1643 53.5587 20.8135 51.902 20.8135H28.4306C26.7738 20.8135 25.615 22.1643 25.8408 23.8293L28.5011 43.3699C28.7283 45.0341 30.2553 46.3849 31.9121 46.3849H55.3828C57.0387 46.3849 58.1982 45.0342 57.9718 43.3699Z" fill="#FFD15C"/>
<path d="M43.1253 20.8136H37.2056L38.1438 27.7069H44.0644L43.1253 20.8136Z" fill="#415A6B"/>
<path d="M39.9289 46.385C39.9289 49.0363 37.7786 51.1865 35.1266 51.1865C32.4738 51.1865 30.3235 49.0363 30.3235 46.385C30.3235 43.7337 32.4738 41.5835 35.1266 41.5835C37.7785 41.5828 39.9289 43.7338 39.9289 46.385Z" fill="#415A6B"/>
<path d="M37.2063 46.3848C37.2063 47.5331 36.2748 48.4646 35.1266 48.4646C33.9776 48.4646 33.0468 47.5331 33.0468 46.3848C33.0468 45.2366 33.9775 44.3051 35.1266 44.3051C36.2748 44.3044 37.2063 45.2359 37.2063 46.3848Z" fill="#CED6E0"/>
<path d="M56.3007 46.3849C56.3007 49.0362 54.1505 51.1864 51.4992 51.1864C48.8464 51.1864 46.6962 49.0362 46.6962 46.3849C46.6962 43.7336 48.8464 41.5834 51.4992 41.5834C54.1505 41.5827 56.3007 43.7337 56.3007 46.3849Z" fill="#415A6B"/>
<path d="M53.5789 46.3848C53.5789 47.5331 52.6474 48.4646 51.4984 48.4646C50.3495 48.4646 49.418 47.5331 49.418 46.3848C49.418 45.2366 50.3495 44.3051 51.4984 44.3051C52.6474 44.3051 53.5789 45.2359 53.5789 46.3848Z" fill="#CED6E0"/>
<path d="M31.1493 28.7343H22.93C22.4163 28.7343 22 28.318 22 27.805C22 27.292 22.4163 26.875 22.9293 26.875H31.1486C31.663 26.875 32.0786 27.292 32.0786 27.805C32.0786 28.318 31.663 28.7343 31.1493 28.7343Z" fill="#F3705A"/>
<path d="M33.8433 33.2838H25.6233C25.1096 33.2838 24.6941 32.8668 24.6941 32.3546C24.6941 31.8408 25.1103 31.4246 25.6233 31.4246H33.8434C34.3579 31.4246 34.7734 31.8416 34.7734 32.3546C34.7734 32.8676 34.3571 33.2838 33.8433 33.2838Z" fill="#F3705A"/>
<path d="M28.5123 37.8326H22.93C22.4163 37.8326 22 37.4164 22 36.9041C22 36.3904 22.417 35.9741 22.93 35.9741H28.5123C29.0268 35.9741 29.4423 36.3904 29.4423 36.9041C29.4423 37.4172 29.0268 37.8326 28.5123 37.8326Z" fill="#F3705A"/>
</g>
<defs>
<filter id="filter0_d" x="0" y="0" width="80" height="80" filterUnits="userSpaceOnUse" color-interpolation-filters="sRGB">
<feFlood flood-opacity="0" result="BackgroundImageFix"/>
<feColorMatrix in="SourceAlpha" type="matrix" values="0 0 0 0 0 0 0 0 0 0 0 0 0 0 0 0 0 0 127 0"/>
<feOffset dy="4"/>
<feGaussianBlur stdDeviation="2"/>
<feColorMatrix type="matrix" values="0 0 0 0 0 0 0 0 0 0 0 0 0 0 0 0 0 0 0.25 0"/>
<feBlend mode="normal" in2="BackgroundImageFix" result="effect1_dropShadow"/>
<feBlend mode="normal" in="SourceGraphic" in2="effect1_dropShadow" result="shape"/>
</filter>
</defs>
</svg>
