<svg width="112" height="112" viewBox="0 0 112 112" fill="none" xmlns="http://www.w3.org/2000/svg">
<g filter="url(#filter0_d)">
<circle cx="56" cy="56" r="50" fill="white"/>
</g>
<path d="M63.8814 25.5255L57.5763 33.9323L63.8814 42.3391H87V25.5255H63.8814ZM64.9322 36.034C63.7711 36.034 62.8305 35.0934 62.8305 33.9323C62.8305 32.7711 63.7711 31.8306 64.9322 31.8306C66.0934 31.8306 67.0339 32.7711 67.0339 33.9323C67.0339 35.0934 66.0934 36.034 64.9322 36.034Z" fill="#4398D1"/>
<path d="M87 29.3106L68.2518 42.339H87V29.3106Z" fill="#3F8FC4"/>
<path d="M71.2373 50.7458H41.8135V77.017H71.2373V50.7458Z" fill="#F9B44D"/>
<path d="M59.678 50.7458H53.3729V57.0509H59.678V50.7458Z" fill="#F77219"/>
<path d="M77.7903 31.8305H81.7457V29.7288H79.644V28.678H77.5423V29.754C76.2561 29.8854 75.3198 31.0349 75.4512 32.3212C75.5332 33.1209 76.0197 33.8229 76.7395 34.1801L79.5053 35.563C79.6282 35.6229 79.6798 35.7721 79.6187 35.895C79.5778 35.9791 79.4927 36.0327 79.4002 36.0337H75.4405V38.1354H77.5422V39.1863H79.6439V38.1102C80.9302 37.9788 81.8665 36.8293 81.7351 35.543C81.6531 34.7433 81.1666 34.0413 80.4468 33.6841L77.681 32.3012C77.5581 32.2413 77.5065 32.0921 77.5675 31.9692C77.6085 31.8851 77.6936 31.8315 77.7861 31.8305H77.7903Z" fill="#87CED9"/>
<path d="M75.9661 57.0509H71.2372V54.9492H75.9661C77.9974 54.9492 79.644 53.3025 79.644 51.2712C79.644 49.2398 77.9974 47.5932 75.9661 47.5932H53.3729C49.3103 47.5932 46.0169 44.2998 46.0169 40.2373C46.0169 36.1747 49.3103 32.8813 53.3729 32.8813H62.8305V34.983H53.3729C50.4715 34.983 48.1186 37.3358 48.1186 40.2373C48.1186 43.1387 50.4715 45.4915 53.3729 45.4915H75.9661C79.1586 45.4915 81.7457 48.0787 81.7457 51.2712C81.7457 54.4637 79.1586 57.0509 75.9661 57.0509Z" fill="#4398D1"/>
<path d="M41.8135 76.4915V77.0169H71.2374V54.4237L41.8135 76.4915Z" fill="#F7AA36"/>
<path d="M65.9831 75.9661H63.8814C65.9127 75.9661 67.5594 74.3195 67.5594 72.2881C67.5594 70.2568 65.9127 68.6101 63.8814 68.6101H53.3729C48.8154 66.005 43.2186 66.005 38.6609 68.6101V86.4745H65.983L85.0453 75.0371C86.2581 74.31 87 72.9995 87 71.5852C87 69.3615 85.1978 67.5594 82.9742 67.5594H82.7525C82.0926 67.5605 81.4431 67.7223 80.861 68.0334L65.9831 75.9661Z" fill="#FEC9A3"/>
<path d="M38.6611 68.6102H25V86.4746H38.6611V68.6102Z" fill="#4398D1"/>
<path d="M65.9831 77.0169H54.4237C53.8437 77.0169 53.3729 76.5461 53.3729 75.9661C53.3729 75.386 53.8437 74.9152 54.4237 74.9152H65.9831C66.5631 74.9152 67.0339 75.386 67.0339 75.9661C67.0339 76.5461 66.5631 77.0169 65.9831 77.0169Z" fill="#F5B789"/>
<path d="M38.6611 75.9661H25V86.4746H38.6611V75.9661Z" fill="#3F8FC4"/>
<path d="M32.356 82.2712C33.5167 82.2712 34.4577 81.3303 34.4577 80.1695C34.4577 79.0088 33.5167 78.0678 32.356 78.0678C31.1952 78.0678 30.2543 79.0088 30.2543 80.1695C30.2543 81.3303 31.1952 82.2712 32.356 82.2712Z" fill="#18588C"/>
<defs>
<filter id="filter0_d" x="0" y="0" width="112" height="112" filterUnits="userSpaceOnUse" color-interpolation-filters="sRGB">
<feFlood flood-opacity="0" result="BackgroundImageFix"/>
<feColorMatrix in="SourceAlpha" type="matrix" values="0 0 0 0 0 0 0 0 0 0 0 0 0 0 0 0 0 0 127 0"/>
<feOffset/>
<feGaussianBlur stdDeviation="3"/>
<feColorMatrix type="matrix" values="0 0 0 0 0 0 0 0 0 0 0 0 0 0 0 0 0 0 0.25 0"/>
<feBlend mode="normal" in2="BackgroundImageFix" result="effect1_dropShadow"/>
<feBlend mode="normal" in="SourceGraphic" in2="effect1_dropShadow" result="shape"/>
</filter>
</defs>
</svg>
