<svg width="80" height="80" viewBox="0 0 80 80" fill="none" xmlns="http://www.w3.org/2000/svg">
<g filter="url(#filter0_d)">
<circle cx="40" cy="36" r="35.5" fill="white" stroke="#CECECE"/>
<path d="M39.9681 46.5874C47.8623 46.5874 54.2618 40.1879 54.2618 32.2937C54.2618 24.3995 47.8623 18 39.9681 18C32.0739 18 25.6744 24.3995 25.6744 32.2937C25.6744 40.1879 32.0739 46.5874 39.9681 46.5874Z" fill="#FFD15C"/>
<path d="M28.3886 40.6559L23.4705 49.1811L29.2106 48.8764L31.8185 54L36.3681 46.1126C33.1083 45.2693 30.309 43.3063 28.3886 40.6559Z" fill="#40596B"/>
<path d="M51.5759 40.6134C49.6696 43.2709 46.8704 45.241 43.6177 46.0984L48.1815 54L50.7893 48.8764L56.5295 49.1811L51.5759 40.6134Z" fill="#40596B"/>
<path d="M39.9681 42.6544C45.6901 42.6544 50.3287 38.0158 50.3287 32.2937C50.3287 26.5717 45.6901 21.9331 39.9681 21.9331C34.2461 21.9331 29.6075 26.5717 29.6075 32.2937C29.6075 38.0158 34.2461 42.6544 39.9681 42.6544Z" fill="#F8B64C"/>
<path d="M47.0689 31.174C47.3878 30.8622 47.2106 30.3165 46.7712 30.2528L42.6823 29.6575C42.5051 29.6291 42.3563 29.5228 42.2783 29.3598L40.45 25.6535C40.2516 25.2496 39.6775 25.2496 39.4791 25.6535L37.6579 29.3598C37.5799 29.5157 37.424 29.6291 37.2539 29.6575L33.1649 30.2528C32.7256 30.3165 32.5484 30.8622 32.8673 31.174L35.8224 34.0583C35.95 34.1858 36.0067 34.363 35.9783 34.5331L35.2838 38.6008C35.2059 39.0402 35.6736 39.3803 36.0705 39.1677L39.7271 37.2472C39.8831 37.1622 40.0744 37.1622 40.2303 37.2472L43.887 39.1677C44.2838 39.3732 44.7445 39.0402 44.6736 38.6008L43.972 34.5331C43.9437 34.3559 44.0004 34.1787 44.1279 34.0583L47.0689 31.174Z" fill="white"/>
</g>
<defs>
<filter id="filter0_d" x="0" y="0" width="80" height="80" filterUnits="userSpaceOnUse" color-interpolation-filters="sRGB">
<feFlood flood-opacity="0" result="BackgroundImageFix"/>
<feColorMatrix in="SourceAlpha" type="matrix" values="0 0 0 0 0 0 0 0 0 0 0 0 0 0 0 0 0 0 127 0"/>
<feOffset dy="4"/>
<feGaussianBlur stdDeviation="2"/>
<feColorMatrix type="matrix" values="0 0 0 0 0 0 0 0 0 0 0 0 0 0 0 0 0 0 0.25 0"/>
<feBlend mode="normal" in2="BackgroundImageFix" result="effect1_dropShadow"/>
<feBlend mode="normal" in="SourceGraphic" in2="effect1_dropShadow" result="shape"/>
</filter>
</defs>
</svg>
