<svg width="400" height="308" viewBox="0 0 400 308" fill="none" xmlns="http://www.w3.org/2000/svg">
<path opacity="0.1" d="M390.309 208.866C389.951 209.128 389.621 209.382 389.27 209.63C387.974 210.546 386.617 211.374 385.209 212.106C377.833 215.995 368.74 217.895 359.883 219.185C340.02 222.081 319.741 222.644 299.548 223.196C244.987 224.694 190.293 226.188 135.865 222.737C114.36 221.375 92.3821 219.095 72.8952 212.106C70.102 211.107 67.3637 210.006 64.6804 208.802C59.2505 206.361 54.0356 203.39 49.6988 199.841C45.6236 196.515 42.3191 192.695 40.3442 188.351C36.2261 179.304 38.4052 169.143 43.1076 160.276C45.0606 156.689 47.263 153.243 49.6988 149.965C53.3295 144.972 57.333 140.123 60.9852 135.134C73.9812 117.399 82.4613 94.9627 70.4652 76.7733C67.0173 71.5476 62.0353 66.96 59.2254 61.5049C55.6413 54.5266 55.9172 46.7778 57.057 39.2511C57.2051 38.2953 57.3616 37.3491 57.5265 36.4125C59.4727 25.2515 63.1357 13.2268 74.4292 6.25922C86.1601 -0.980716 102.819 -0.615135 117.378 1.95827C140.019 6.00116 160.903 14.4167 182.01 22.015C203.117 29.6134 225.199 36.5558 248.396 37.3013C268.879 37.9608 292.771 33.0255 306.365 20.1979C319.569 7.73946 344.389 6.78967 362.278 14.3163C374.557 19.4811 383.718 28.7854 387.581 39.2511C388.364 41.3522 388.927 43.5286 389.262 45.7455C389.572 47.7716 389.673 49.8241 389.563 51.8708C389.51 52.8815 389.406 53.8815 389.262 54.8707C386.273 75.5224 364.758 91.8123 351.679 110.26C345.289 119.27 340.776 130.094 345.17 139.811C351.873 154.617 375.18 159.882 389.255 170.9C391.904 172.905 394.236 175.297 396.173 177.996C403 187.802 400.481 201.046 390.309 208.866Z" fill="#3499D6"/>
<path d="M92.4072 116.439C92.4072 116.439 75.9203 87.221 51.0751 78.8055C40.6489 75.2715 31.5488 68.6266 25.3267 59.5444C22.3811 55.2324 19.8376 50.6589 17.7284 45.8817" stroke="#535461" stroke-width="2" stroke-miterlimit="10"/>
<path d="M2.10514 40.4732C4.9366 43.2079 18.119 46.0752 18.119 46.0752C18.119 46.0752 14.8933 32.986 12.0547 30.237C10.6902 28.9449 8.87143 28.2425 6.99264 28.2821C5.11384 28.3217 3.32633 29.1001 2.01747 30.4485C0.708617 31.797 -0.0161367 33.6069 0.000272691 35.4861C0.016682 37.3652 0.772933 39.1622 2.10514 40.4876V40.4732Z" fill="#3499D6"/>
<path d="M9.56372 64.1607C13.431 64.9277 26.0507 60.1501 26.0507 60.1501C26.0507 60.1501 16.2123 50.9174 12.3414 50.1504C10.5017 49.8264 8.60835 50.236 7.06705 51.2914C5.52574 52.3467 4.45916 53.9638 4.09588 55.7961C3.7326 57.6285 4.10154 59.5302 5.12362 61.0937C6.14571 62.6573 7.73961 63.7583 9.56372 64.1607V64.1607Z" fill="#3499D6"/>
<path d="M36.7134 89.8016C40.4409 88.5113 48.8995 78.0206 48.8995 78.0206C48.8995 78.0206 35.7529 75.0135 32.029 76.3038C31.1153 76.5877 30.2679 77.0522 29.5371 77.6698C28.8064 78.2875 28.2072 79.0456 27.775 79.8993C27.3429 80.7529 27.0867 81.6847 27.0216 82.6393C26.9565 83.5938 27.0838 84.5518 27.396 85.4562C27.7082 86.3606 28.1989 87.1931 28.839 87.9042C29.4791 88.6154 30.2556 89.1907 31.1223 89.596C31.989 90.0013 32.9283 90.2283 33.8844 90.2637C34.8406 90.299 35.7941 90.1419 36.6883 89.8016H36.7134Z" fill="#3499D6"/>
<path d="M61.6231 104.565C65.5155 103.919 75.637 95.0129 75.637 95.0129C75.637 95.0129 63.1894 89.8267 59.297 90.4682C57.4277 90.7767 55.7575 91.8151 54.6538 93.355C53.5502 94.8949 53.1034 96.8102 53.4119 98.6795C53.7203 100.549 54.7587 102.219 56.2986 103.323C57.8385 104.426 59.7538 104.873 61.6231 104.565V104.565Z" fill="#3499D6"/>
<path d="M37.0325 49.921C37.0325 53.8636 29.9 65.3077 29.9 65.3077C29.9 65.3077 22.7533 53.8708 22.7497 49.9282C22.7284 48.9769 22.8974 48.031 23.2467 47.1459C23.596 46.2608 24.1186 45.4544 24.7839 44.7741C25.4491 44.0938 26.2436 43.5533 27.1206 43.1842C27.9976 42.8152 28.9396 42.6251 29.8911 42.6251C30.8426 42.6251 31.7845 42.8152 32.6616 43.1842C33.5386 43.5533 34.3331 44.0938 34.9983 44.7741C35.6636 45.4544 36.1862 46.2608 36.5355 47.1459C36.8848 48.031 37.0538 48.9769 37.0325 49.9282V49.921Z" fill="#3499D6"/>
<path d="M65.9491 67.58C64.77 71.3433 54.5373 80.1244 54.5373 80.1244C54.5373 80.1244 51.1395 67.0603 52.3044 63.279C52.9304 61.5478 54.2007 60.125 55.8503 59.3077C57.4999 58.4903 59.4014 58.3414 61.1582 58.892C62.9149 59.4426 64.3912 60.6502 65.2792 62.2629C66.1671 63.8756 66.3981 65.7688 65.924 67.5477L65.9491 67.58Z" fill="#3499D6"/>
<path d="M91.6975 88.5651C91.1743 92.4754 82.5724 102.859 82.5724 102.859C82.5724 102.859 77.017 90.5722 77.5546 86.6619C77.8329 84.8072 78.8296 83.1363 80.3293 82.0101C81.829 80.8839 83.7115 80.3927 85.5703 80.6426C87.4291 80.8924 89.1151 81.8633 90.2642 83.3456C91.4132 84.8279 91.9332 86.7027 91.7119 88.5651H91.6975Z" fill="#3499D6"/>
<path opacity="0.25" d="M2.10514 40.4732C4.9366 43.2079 18.119 46.0752 18.119 46.0752C18.119 46.0752 14.8933 32.986 12.0547 30.237C10.6902 28.9449 8.87143 28.2425 6.99264 28.2821C5.11384 28.3217 3.32633 29.1001 2.01747 30.4485C0.708617 31.797 -0.0161367 33.6069 0.000272691 35.4861C0.016682 37.3652 0.772933 39.1622 2.10514 40.4876V40.4732Z" fill="black"/>
<path opacity="0.25" d="M9.56372 64.1607C13.431 64.9277 26.0507 60.1501 26.0507 60.1501C26.0507 60.1501 16.2123 50.9174 12.3414 50.1504C10.5017 49.8264 8.60835 50.236 7.06705 51.2914C5.52574 52.3467 4.45916 53.9638 4.09588 55.7961C3.7326 57.6285 4.10154 59.5302 5.12362 61.0937C6.14571 62.6573 7.73961 63.7583 9.56372 64.1607V64.1607Z" fill="black"/>
<path opacity="0.25" d="M36.7134 89.8016C40.4409 88.5113 48.8995 78.0206 48.8995 78.0206C48.8995 78.0206 35.7529 75.0135 32.029 76.3038C31.1153 76.5877 30.2679 77.0522 29.5371 77.6698C28.8064 78.2875 28.2072 79.0456 27.775 79.8993C27.3429 80.7529 27.0867 81.6847 27.0216 82.6393C26.9565 83.5938 27.0838 84.5518 27.396 85.4562C27.7082 86.3606 28.1989 87.1931 28.839 87.9042C29.4791 88.6154 30.2556 89.1907 31.1223 89.596C31.989 90.0013 32.9283 90.2283 33.8844 90.2637C34.8406 90.299 35.7941 90.1419 36.6883 89.8016H36.7134Z" fill="black"/>
<path opacity="0.25" d="M61.6231 104.565C65.5155 103.919 75.637 95.0129 75.637 95.0129C75.637 95.0129 63.1894 89.8267 59.297 90.4682C57.4277 90.7767 55.7575 91.8151 54.6538 93.355C53.5502 94.8949 53.1034 96.8102 53.4119 98.6795C53.7203 100.549 54.7587 102.219 56.2986 103.323C57.8385 104.426 59.7538 104.873 61.6231 104.565V104.565Z" fill="black"/>
<path opacity="0.25" d="M37.0325 49.921C37.0325 53.8636 29.9 65.3077 29.9 65.3077C29.9 65.3077 22.7533 53.8708 22.7497 49.9282C22.7284 48.9769 22.8974 48.031 23.2467 47.1459C23.596 46.2608 24.1186 45.4544 24.7839 44.7741C25.4491 44.0938 26.2436 43.5533 27.1206 43.1842C27.9976 42.8152 28.9396 42.6251 29.8911 42.6251C30.8426 42.6251 31.7845 42.8152 32.6616 43.1842C33.5386 43.5533 34.3331 44.0938 34.9983 44.7741C35.6636 45.4544 36.1862 46.2608 36.5355 47.1459C36.8848 48.031 37.0538 48.9769 37.0325 49.9282V49.921Z" fill="black"/>
<path opacity="0.25" d="M65.9491 67.58C64.77 71.3433 54.5373 80.1244 54.5373 80.1244C54.5373 80.1244 51.1395 67.0603 52.3044 63.279C52.9304 61.5478 54.2007 60.125 55.8503 59.3077C57.4999 58.4903 59.4014 58.3414 61.1582 58.892C62.9149 59.4426 64.3912 60.6502 65.2792 62.2629C66.1671 63.8756 66.3981 65.7688 65.924 67.5477L65.9491 67.58Z" fill="black"/>
<path opacity="0.25" d="M91.6975 88.5651C91.1743 92.4754 82.5724 102.859 82.5724 102.859C82.5724 102.859 77.017 90.5722 77.5546 86.6619C77.8329 84.8072 78.8296 83.1363 80.3293 82.0101C81.829 80.8839 83.7115 80.3927 85.5703 80.6426C87.4291 80.8924 89.1151 81.8633 90.2642 83.3456C91.4132 84.8279 91.9332 86.7027 91.7119 88.5651H91.6975Z" fill="black"/>
<path d="M91.4574 115.858C91.4574 115.858 88.2317 82.4613 68.9204 64.6984C60.8239 57.2434 55.1968 47.4946 53.1861 36.6562C52.2423 31.5191 51.772 26.3062 51.7811 21.0831" stroke="#535461" stroke-width="2" stroke-miterlimit="10"/>
<path d="M39.6847 9.81826C41.1614 13.4776 52.0607 21.4165 52.0607 21.4165C52.0607 21.4165 54.4083 8.1373 52.9352 4.47791C52.227 2.71936 50.8493 1.31415 49.105 0.571421C47.3608 -0.171309 45.393 -0.190721 43.6344 0.517452C41.8759 1.22563 40.4706 2.60338 39.7279 4.34762C38.9852 6.09186 38.9658 8.0597 39.6739 9.81826H39.6847Z" fill="#3499D6"/>
<path d="M36.8927 34.495C40.1184 36.7637 53.584 37.5056 53.584 37.5056C53.584 37.5056 48.3619 25.083 45.1362 22.8143C43.5872 21.7211 41.6675 21.2881 39.7992 21.6104C37.9309 21.9327 36.2672 22.9839 35.1741 24.5329C34.0809 26.0818 33.6479 28.0016 33.9702 29.8698C34.2925 31.7381 35.3437 33.4018 36.8927 34.495V34.495Z" fill="#3499D6"/>
<path d="M51.3403 68.9312C55.2828 69.2645 67.2681 63.1034 67.2681 63.1034C67.2681 63.1034 56.4691 55.0284 52.5374 54.6987C51.5913 54.5979 50.6347 54.6872 49.7237 54.9612C48.8126 55.2353 47.9655 55.6885 47.232 56.2944C46.4985 56.9003 45.8934 57.6466 45.4523 58.4895C45.0111 59.3324 44.7428 60.2549 44.6631 61.203C44.5833 62.151 44.6938 63.1054 44.9879 64.0102C45.2821 64.9149 45.754 65.7518 46.376 66.4717C46.9979 67.1916 47.7575 67.78 48.61 68.2023C49.4624 68.6247 50.3907 68.8725 51.3403 68.9312Z" fill="#3499D6"/>
<path d="M68.1282 92.5291C71.9489 93.5184 84.8124 89.4755 84.8124 89.4755C84.8124 89.4755 75.5331 79.6908 71.716 78.7016C69.8939 78.2602 67.9713 78.5527 66.3631 79.5162C64.7548 80.4797 63.5898 82.0368 63.1194 83.8516C62.649 85.6664 62.9109 87.5934 63.8487 89.2168C64.7864 90.8402 66.3248 92.0299 68.1318 92.5291H68.1282Z" fill="#3499D6"/>
<path d="M67.7878 32.6097C66.1929 36.2154 55.0319 43.7815 55.0319 43.7815C55.0319 43.7815 53.1323 30.4342 54.7273 26.825C55.0967 25.9518 55.6362 25.1608 56.3144 24.4983C56.9926 23.8357 57.7959 23.3148 58.6775 22.9659C59.5591 22.617 60.5014 22.4471 61.4493 22.4662C62.3973 22.4852 63.3319 22.6927 64.1988 23.0767C65.0657 23.4607 65.8475 24.0134 66.4986 24.7026C67.1497 25.3918 67.6571 26.2038 67.9911 27.0911C68.3252 27.9784 68.4793 28.9234 68.4444 29.8709C68.4094 30.8183 68.1863 31.7494 67.7878 32.6097V32.6097Z" fill="#3499D6"/>
<path d="M87.0704 60.4512C84.4683 63.4152 71.5547 67.2968 71.5547 67.2968C71.5547 67.2968 73.7338 53.9926 76.3395 51.0285C76.9582 50.3239 77.7096 49.7481 78.5509 49.3339C79.3921 48.9197 80.3067 48.6752 81.2424 48.6145C82.1781 48.5537 83.1166 48.6779 84.0044 48.9799C84.8921 49.2818 85.7117 49.7557 86.4163 50.3744C87.1209 50.9931 87.6967 51.7445 88.1109 52.5858C88.5251 53.427 88.7695 54.3416 88.8303 55.2773C88.891 56.213 88.7669 57.1515 88.4649 58.0393C88.1629 58.927 87.6891 59.7466 87.0704 60.4512V60.4512Z" fill="#3499D6"/>
<path d="M102.124 90.0883C100.059 93.4502 87.988 99.4572 87.988 99.4572C87.988 99.4572 87.8876 85.9737 89.9521 82.6118C90.9435 80.9958 92.5363 79.8399 94.38 79.3983C96.2237 78.9567 98.1674 79.2656 99.7833 80.257C101.399 81.2485 102.555 82.8413 102.997 84.685C103.438 86.5287 103.13 88.4723 102.138 90.0883H102.124Z" fill="#3499D6"/>
<path opacity="0.1" d="M146.23 305.265C168.307 305.265 186.204 302.935 186.204 300.061C186.204 297.187 168.307 294.857 146.23 294.857C124.153 294.857 106.256 297.187 106.256 300.061C106.256 302.935 124.153 305.265 146.23 305.265Z" fill="#3499D6"/>
<path opacity="0.1" d="M65.4868 301.738C72.1932 301.738 77.6298 300.807 77.6298 299.659C77.6298 298.511 72.1932 297.581 65.4868 297.581C58.7804 297.581 53.3438 298.511 53.3438 299.659C53.3438 300.807 58.7804 301.738 65.4868 301.738Z" fill="#3499D6"/>
<path d="M68.1247 276.513C68.1247 276.513 70.0924 279.09 67.2144 282.964C64.3363 286.839 61.9636 290.133 62.9134 292.559C62.9134 292.559 67.2538 285.337 70.7985 285.237C74.3432 285.136 72.0171 280.857 68.1247 276.513Z" fill="#3499D6"/>
<path opacity="0.1" d="M68.1247 276.513C68.2966 276.762 68.4318 277.035 68.5261 277.323C71.974 281.373 73.8127 285.154 70.4974 285.247C67.4115 285.337 63.7055 290.857 62.8202 292.251C62.8494 292.359 62.8841 292.465 62.9241 292.57C62.9241 292.57 67.2645 285.348 70.8092 285.247C74.3539 285.147 72.0171 280.857 68.1247 276.513Z" fill="black"/>
<path d="M71.7842 279.796C71.7842 280.703 71.6838 281.438 71.5584 281.438C71.4329 281.438 71.329 280.721 71.329 279.796C71.329 278.871 71.458 279.316 71.5834 279.316C71.7089 279.316 71.7842 278.889 71.7842 279.796Z" fill="#FFD037"/>
<path d="M73.0422 280.878C72.2465 281.312 71.5512 281.574 71.4902 281.463C71.4293 281.352 72.0278 280.911 72.8235 280.477C73.6192 280.043 73.3038 280.359 73.3647 280.477C73.4257 280.595 73.8378 280.445 73.0422 280.878Z" fill="#FFD037"/>
<path d="M57.7237 276.513C57.7237 276.513 55.756 279.09 58.634 282.964C61.5121 286.839 63.8848 290.133 62.935 292.559C62.935 292.559 58.5946 285.337 55.0499 285.237C51.5052 285.136 53.8385 280.857 57.7237 276.513Z" fill="#3499D6"/>
<path opacity="0.1" d="M57.7236 276.513C57.5518 276.762 57.4166 277.035 57.3222 277.323C53.8743 281.373 52.0356 285.154 55.351 285.247C58.4405 285.337 62.1429 290.857 63.0281 292.251C63.0005 292.359 62.9658 292.466 62.9242 292.57C62.9242 292.57 58.5838 285.348 55.0391 285.247C51.4944 285.147 53.8384 280.857 57.7236 276.513Z" fill="black"/>
<path d="M54.0642 279.796C54.0642 280.703 54.1646 281.438 54.29 281.438C54.4154 281.438 54.5194 280.721 54.5194 279.796C54.5194 278.871 54.3904 279.316 54.2649 279.316C54.1395 279.316 54.0642 278.889 54.0642 279.796Z" fill="#FFD037"/>
<path d="M52.8097 280.878C53.6054 281.312 54.2971 281.574 54.3581 281.463C54.419 281.352 53.8205 280.911 53.0248 280.477C52.2291 280.043 52.5445 280.359 52.4836 280.477C52.4226 280.595 52.0141 280.445 52.8097 280.878Z" fill="#FFD037"/>
<path d="M54.6914 292.233C54.6914 292.233 60.1966 292.061 61.8597 290.882C63.5227 289.702 70.3254 288.287 70.7375 290.183C71.1497 292.079 79.0097 299.605 72.7948 299.656C66.5799 299.706 58.3544 298.688 56.6985 297.681C55.0426 296.674 54.6914 292.233 54.6914 292.233Z" fill="#A8A8A8"/>
<path opacity="0.2" d="M72.9023 298.996C66.6875 299.046 58.4619 298.029 56.806 297.021C55.5444 296.251 55.0426 293.495 54.8742 292.226H54.6914C54.6914 292.226 55.0498 296.663 56.6949 297.674C58.34 298.684 66.5764 299.699 72.7912 299.649C74.5833 299.649 75.2069 298.996 75.1711 298.05C74.9238 298.631 74.2392 298.985 72.9023 298.996Z" fill="black"/>
<path d="M238.535 292.022C238.535 292.022 223.382 291.108 225.17 301.727C225.17 301.727 224.812 303.602 226.514 304.455C226.514 304.455 226.543 303.67 228.07 303.935C228.613 304.027 229.165 304.053 229.715 304.014C230.459 303.965 231.167 303.673 231.729 303.182V303.182C231.729 303.182 235.987 301.426 237.643 294.462C237.643 294.462 238.869 292.943 238.822 292.552L236.263 293.627C236.263 293.627 237.138 295.473 236.45 297.007C236.45 297.007 236.367 293.695 235.876 293.781C235.776 293.781 234.546 294.419 234.546 294.419C234.546 294.419 236.052 297.645 234.905 299.968C234.905 299.968 235.335 296.025 234.066 294.652L232.274 295.702C232.274 295.702 234.03 299.021 232.84 301.731C232.84 301.731 233.145 297.577 231.898 295.957L230.267 297.229C230.267 297.229 231.916 300.502 230.908 302.749C230.908 302.749 230.779 297.914 229.912 297.548C229.912 297.548 228.478 298.806 228.267 299.34C228.267 299.34 229.396 301.713 228.697 302.967C228.697 302.967 228.267 299.742 227.912 299.742C227.912 299.742 226.478 301.892 226.342 303.326C226.342 303.326 226.407 301.15 227.568 299.523C226.748 299.679 225.992 300.072 225.392 300.652C225.392 300.652 225.615 299.143 227.901 299.011C227.901 299.011 229.077 297.391 229.392 297.294C229.392 297.294 227.099 297.1 225.708 297.717C225.708 297.717 226.93 296.283 229.812 296.939L231.421 295.627C231.421 295.627 228.403 295.211 227.12 295.67C227.12 295.67 228.597 294.409 231.855 295.312L233.611 294.265C233.611 294.265 231.034 293.71 229.5 293.907C229.5 293.907 231.12 293.032 234.123 293.978L235.378 293.416C235.378 293.416 233.489 293.057 232.937 292.989C232.385 292.921 232.356 292.778 232.356 292.778C233.552 292.579 234.779 292.715 235.901 293.172C235.901 293.172 238.582 292.19 238.535 292.022Z" fill="#3499D6"/>
<path opacity="0.1" d="M228.099 307.193C234.021 307.193 238.822 306.381 238.822 305.379C238.822 304.378 234.021 303.566 228.099 303.566C222.176 303.566 217.375 304.378 217.375 305.379C217.375 306.381 222.176 307.193 228.099 307.193Z" fill="#3499D6"/>
<path d="M211.988 292.588C211.988 292.588 203.443 292.072 204.461 298.061C204.41 298.364 204.456 298.677 204.592 298.953C204.729 299.229 204.949 299.455 205.221 299.598C205.221 299.598 205.221 299.154 206.099 299.304C206.405 299.354 206.715 299.37 207.024 299.351C207.443 299.32 207.842 299.156 208.16 298.882V298.882C208.16 298.882 210.561 297.889 211.497 293.964C211.497 293.964 212.185 293.108 212.16 292.889L210.726 293.502C210.726 293.502 211.217 294.545 210.83 295.409C210.83 295.409 210.784 293.541 210.508 293.584C210.45 293.584 209.759 293.943 209.759 293.943C209.759 293.943 210.604 295.735 209.967 297.072C209.967 297.072 210.207 294.839 209.493 294.072L208.479 294.667C208.479 294.667 209.468 296.538 208.798 298.064C208.798 298.064 208.97 295.72 208.264 294.81L207.347 295.527C207.347 295.527 208.275 297.373 207.705 298.638C207.705 298.638 207.63 295.91 207.142 295.706C206.793 296 206.481 296.336 206.214 296.706C206.214 296.706 206.852 298.046 206.458 298.753C206.458 298.753 206.214 296.935 206.017 296.928C206.017 296.928 205.214 298.132 205.132 298.957C205.168 298.192 205.405 297.45 205.82 296.806C205.358 296.894 204.932 297.114 204.594 297.441C204.594 297.441 204.719 296.588 206.028 296.516C206.028 296.516 206.687 295.602 206.866 295.548C206.866 295.548 205.572 295.437 204.787 295.785C204.787 295.785 205.479 294.982 207.103 295.348L208.01 294.606C208.01 294.606 206.307 294.373 205.587 294.631C205.587 294.631 206.418 293.914 208.257 294.437L209.243 293.849C208.483 293.681 207.704 293.614 206.927 293.649C206.927 293.649 207.841 293.158 209.533 293.688L210.25 293.373C210.25 293.373 209.174 293.161 208.877 293.129C208.579 293.097 208.547 293.011 208.547 293.011C209.222 292.899 209.914 292.976 210.547 293.233C210.547 293.233 212.013 292.685 211.988 292.588Z" fill="#3499D6"/>
<path opacity="0.1" d="M206.103 301.143C209.442 301.143 212.149 300.686 212.149 300.122C212.149 299.557 209.442 299.1 206.103 299.1C202.763 299.1 200.056 299.557 200.056 300.122C200.056 300.686 202.763 301.143 206.103 301.143Z" fill="#3499D6"/>
<path d="M228.249 279.896C228.249 279.896 217.937 279.273 219.152 286.502C219.09 286.869 219.145 287.246 219.31 287.579C219.475 287.913 219.741 288.185 220.07 288.359C220.07 288.359 220.07 287.825 221.127 288C221.497 288.059 221.872 288.077 222.246 288.054C222.752 288.018 223.234 287.819 223.618 287.488V287.488C223.618 287.488 226.518 286.291 227.643 281.549C227.643 281.549 228.478 280.516 228.446 280.251L226.704 280.993C226.704 280.993 227.299 282.251 226.833 283.294C226.833 283.294 226.776 281.04 226.439 281.094C226.374 281.094 225.536 281.527 225.536 281.527C225.536 281.527 226.561 283.717 225.787 285.305C225.787 285.305 226.081 282.61 225.217 281.685L223.991 282.402C223.991 282.402 225.188 284.66 224.378 286.506C224.378 286.506 224.586 283.678 223.733 282.563L222.622 283.427C222.622 283.427 223.747 285.653 223.063 287.183C223.063 287.183 222.973 283.893 222.382 283.642C222.382 283.642 221.41 284.498 221.264 284.85C221.264 284.85 222.034 286.466 221.554 287.319C221.554 287.319 221.264 285.129 221.023 285.119C221.023 285.119 220.056 286.552 219.948 287.566C219.994 286.646 220.281 285.754 220.78 284.979C220.222 285.085 219.708 285.351 219.299 285.746C219.299 285.746 219.45 284.717 221.02 284.627C221.02 284.627 221.819 283.527 222.034 283.459C222.034 283.459 220.471 283.33 219.525 283.749C219.525 283.749 220.357 282.778 222.321 283.219L223.418 282.326C223.418 282.326 221.36 282.043 220.489 282.355C220.489 282.355 221.493 281.499 223.715 282.122L224.909 281.405C224.909 281.405 223.156 281.047 222.113 281.165C222.113 281.165 223.213 280.57 225.26 281.212L226.113 280.832C226.113 280.832 224.826 280.577 224.45 280.538C224.073 280.499 224.056 280.395 224.056 280.395C224.869 280.259 225.704 280.352 226.468 280.663C226.468 280.663 228.285 280.011 228.249 279.896Z" fill="#3499D6"/>
<path opacity="0.1" d="M221.149 290.222C225.181 290.222 228.45 289.67 228.45 288.989C228.45 288.308 225.181 287.756 221.149 287.756C217.117 287.756 213.848 288.308 213.848 288.989C213.848 289.67 217.117 290.222 221.149 290.222Z" fill="#3499D6"/>
<path d="M389.929 209.558V34.2477H48.9532V199.501C53.308 203.135 58.5444 206.193 64.0066 208.705C66.6971 209.945 69.4449 211.079 72.2501 212.106H385.861L389.929 209.558Z" fill="url(#paint0_linear)"/>
<path d="M389.27 209.63V39.2654H49.6987V199.87C54.0355 203.404 59.2504 206.375 64.6804 208.83C67.3613 210.025 70.0996 211.127 72.8952 212.135H385.209L389.27 209.63Z" fill="white"/>
<path d="M389.269 34.7458H49.7023V43.7563H389.269V34.7458Z" fill="#5A5773"/>
<path d="M56.4835 41.5807C57.7701 41.5807 58.8132 40.5377 58.8132 39.2511C58.8132 37.9644 57.7701 36.9214 56.4835 36.9214C55.1968 36.9214 54.1538 37.9644 54.1538 39.2511C54.1538 40.5377 55.1968 41.5807 56.4835 41.5807Z" fill="white"/>
<path d="M62.7557 41.5807C64.0424 41.5807 65.0854 40.5377 65.0854 39.2511C65.0854 37.9644 64.0424 36.9214 62.7557 36.9214C61.4691 36.9214 60.426 37.9644 60.426 39.2511C60.426 40.5377 61.4691 41.5807 62.7557 41.5807Z" fill="white"/>
<path d="M69.0279 41.5807C70.3146 41.5807 71.3576 40.5377 71.3576 39.2511C71.3576 37.9644 70.3146 36.9214 69.0279 36.9214C67.7413 36.9214 66.6982 37.9644 66.6982 39.2511C66.6982 40.5377 67.7413 41.5807 69.0279 41.5807Z" fill="white"/>
<path d="M192.569 63.5586H136.478V98.8049H192.569V63.5586Z" fill="#3499D6"/>
<path opacity="0.2" d="M114.905 63.5586H58.8131V98.8049H114.905V63.5586Z" fill="#5A5773"/>
<path opacity="0.2" d="M270.234 63.5586H214.142V98.8049H270.234V63.5586Z" fill="#5A5773"/>
<path opacity="0.2" d="M114.905 113.948H58.8131V149.194H114.905V113.948Z" fill="#5A5773"/>
<path opacity="0.2" d="M192.569 113.948H136.478V149.194H192.569V113.948Z" fill="#5A5773"/>
<path opacity="0.2" d="M270.234 113.948H214.142V149.194H270.234V113.948Z" fill="#5A5773"/>
<path opacity="0.2" d="M114.905 164.333H58.8131V199.58H114.905V164.333Z" fill="#5A5773"/>
<path opacity="0.2" d="M192.569 164.333H136.478V199.58H192.569V164.333Z" fill="#5A5773"/>
<path opacity="0.2" d="M270.234 164.333H214.142V199.58H270.234V164.333Z" fill="#5A5773"/>
<path d="M178.824 94.4323L174.953 95.8015L173.548 93.4718C172.473 91.6797 170.982 89.2282 169.882 87.4469C167.939 84.3143 170.48 79.5403 170.48 79.5403C170.48 79.5403 170.939 74.7483 172.573 73.2717C174.208 71.795 174.663 79.5403 174.663 79.5403C181.225 82.5223 177.709 89.5364 177.709 89.5364L178.347 92.3177L178.824 94.4323Z" fill="#EFB7B9"/>
<path opacity="0.1" d="M178.824 94.4323L174.953 95.8014L173.548 93.4718V93.2675C173.548 93.2675 175.767 91.7442 178.355 92.3177L178.824 94.4323Z" fill="black"/>
<path d="M172.573 110.131L174.512 108.489L173.541 93.7155C173.541 93.7155 178.559 90.2819 182.272 95.6545C182.272 95.6545 182.121 98.9375 182.272 99.8336C182.423 100.73 181.229 101.626 182.272 102.518C183.315 103.411 182.272 106.4 182.272 106.4C182.272 106.4 183.451 108.489 184.197 109.084C184.942 109.679 185.691 114.607 184.197 115.65C182.702 116.693 179.899 119.084 179.899 120.127C179.899 121.17 176.315 123.711 176.315 123.711L173.168 119.55L172.573 110.131Z" fill="#FF6484"/>
<path d="M130.639 199.813C123.406 196.745 125.012 189.25 126.374 185.476C126.646 184.712 126.966 183.965 127.331 183.24L131.388 180.777C131.388 180.777 132.216 182.889 133.101 185.72C135.155 192.308 137.517 202.734 130.639 199.813Z" fill="#EFB7B9"/>
<path d="M140.581 268.194C140.092 269.148 139.73 270.163 139.506 271.212C139.148 272.9 138.992 274.624 139.04 276.348C139.069 277.542 139.169 278.323 139.169 278.323L131.112 283.864C131.112 283.864 131.159 283.215 131.238 282.262C131.446 279.724 131.879 275.015 132.288 274.406C132.571 273.983 132.768 272.284 132.893 270.707C133.019 269.13 133.069 267.746 133.069 267.746C133.069 267.746 142.764 264.112 140.581 268.194Z" fill="#EFB7B9"/>
<path d="M159.61 272.169C159.61 272.169 159.61 273.71 159.552 275.502C159.495 277.294 159.387 279.409 159.162 280.395C158.954 281.298 158.939 282.957 158.979 284.488C159.032 286.28 159.162 287.893 159.162 287.893C159.162 287.893 150.936 280.115 151.775 279.499C152 279.334 152.223 278.671 152.427 277.789C152.678 276.714 152.904 275.28 153.072 274.061C153.273 272.61 153.398 271.441 153.398 271.441L159.61 272.169Z" fill="#EFB7B9"/>
<path opacity="0.1" d="M140.581 268.194C140.092 269.148 139.73 270.163 139.506 271.212C137.301 271.154 135.1 270.986 132.911 270.707C133.033 269.166 133.087 267.746 133.087 267.746C133.087 267.746 142.764 264.112 140.581 268.194Z" fill="black"/>
<path opacity="0.1" d="M159.609 272.169C159.609 272.169 159.609 273.71 159.552 275.502C156.986 276.158 154.348 274.846 153.072 274.069C153.273 272.617 153.398 271.449 153.398 271.449L159.609 272.169Z" fill="black"/>
<path d="M176.451 195.935C173.168 203.103 171.824 211.605 171.824 211.605L170.631 218.773C170.631 218.773 171.229 221.905 170.631 223.099C170.032 224.292 168.839 226.235 168.839 226.235C168.839 226.235 169.735 233.547 168.839 234.292C167.943 235.038 168.839 239.514 168.839 239.514L165.853 254.567L161.674 273.965C157.645 277.251 152.284 273.072 152.284 273.072L153.466 260.388C153.466 260.388 155.258 238.166 154.513 237.256C153.767 236.346 154.81 233.525 154.81 233.525C154.81 233.525 155.857 230.837 155.111 229.794C154.366 228.751 155.258 226.511 155.258 226.511C155.258 226.511 154.961 217.407 155.857 215.318C156.753 213.228 155.857 200.304 155.857 200.304L155.498 196.279L155.291 194.049L155.273 193.831C155.273 193.831 155.136 194.723 154.914 196.107C154.255 200.318 152.85 209.045 152.294 210.841C151.917 212.135 151.404 213.386 150.764 214.572C150.764 214.572 151.538 219.049 150.764 220.242C149.99 221.436 150.646 222.78 150.646 222.78C150.646 222.78 151.391 226.511 149.151 228.002C146.911 229.493 149.151 230.242 149.151 230.242C149.151 230.242 147.509 233.826 146.914 235.313C146.32 236.801 146.914 238.898 146.914 238.898L145.721 250.983C145.721 250.983 144.674 256.055 144.825 259.488C144.975 262.922 143.481 270.829 143.481 270.829C143.481 270.829 131.99 270.829 130.22 269.485C128.449 268.14 133.177 255.03 133.177 255.03C133.177 255.03 134.521 232.048 134.22 231.453C133.918 230.858 134.22 226.378 135.266 225.486C136.313 224.593 135.266 222.798 135.266 222.798C135.266 222.798 134.969 219.214 135.266 218.321C135.564 217.429 135.219 214.44 135.219 214.44C135.219 214.44 134.22 207.128 134.073 202.949C133.926 198.77 133.177 189.372 133.177 189.372C133.177 189.372 133.958 183.559 134.076 180.792C134.119 179.774 134.574 178.502 135.151 177.304C135.797 175.953 136.54 174.65 137.374 173.405C137.374 173.405 172.731 162.954 174.215 163.993C174.609 164.269 175.182 166.143 175.749 168.857C177.326 176.437 178.867 190.666 176.451 195.935Z" fill="#444053"/>
<path d="M154.667 104.729C160.354 104.729 164.964 100.119 164.964 94.4323C164.964 88.7453 160.354 84.1351 154.667 84.1351C148.98 84.1351 144.37 88.7453 144.37 94.4323C144.37 100.119 148.98 104.729 154.667 104.729Z" fill="#A1616A"/>
<path opacity="0.1" d="M175.749 168.864C174.562 169.473 173.767 169.892 173.767 169.892C173.767 169.892 157.054 177.803 152.301 177.355C148.624 176.996 139.237 177.201 135.148 177.301C135.794 175.949 136.536 174.646 137.37 173.401C137.37 173.401 172.731 162.954 174.215 163.993C174.609 164.276 175.182 166.143 175.749 168.864Z" fill="black"/>
<path d="M147.502 110.876C147.502 110.876 137.965 112.382 135.714 113.858C133.463 115.335 129.005 118.188 129.005 124.306C129.005 130.424 127.962 136.693 127.363 138.481C126.765 140.27 136.764 154.746 136.764 154.746L133.18 176.684C133.18 176.684 147.517 176.236 152.291 176.684C157.065 177.132 173.77 169.222 173.77 169.222C173.77 169.222 183.62 164 185.709 163.846C187.799 163.692 181.53 152.355 181.53 152.355C181.53 152.355 171.828 134.005 173.469 131.019C175.111 128.033 176.315 123.707 176.315 123.707L174.523 108.489C174.523 108.489 171.839 107.593 169.598 109.235C167.358 110.876 159.749 109.98 159.749 109.98L147.502 110.876Z" fill="#FF6484"/>
<path opacity="0.1" d="M131.313 137.438L127.571 138.481L126.535 152.524C126.535 152.524 127.879 156.255 126.535 157.448C125.191 158.642 124.894 184.161 124.894 184.161C124.894 184.161 129.223 187.293 134.295 184.906C134.295 184.906 133.549 182.071 135.789 171.774C138.029 161.477 138.026 156.255 138.026 156.255C138.026 156.255 138.026 143.42 139.072 141.331C140.119 139.241 139.072 134.019 139.072 134.019C139.072 134.019 136.983 131.184 137.13 130.141C137.277 129.098 131.313 137.438 131.313 137.438Z" fill="black"/>
<path opacity="0.1" d="M133.101 185.731C130.904 186.471 128.512 186.384 126.374 185.487C126.646 184.722 126.966 183.975 127.331 183.251L131.388 180.788C131.388 180.788 132.23 182.899 133.101 185.731Z" fill="black"/>
<path d="M131.087 137.438L127.356 138.481L126.313 152.524C126.313 152.524 127.657 156.255 126.313 157.448C124.969 158.642 124.672 184.161 124.672 184.161C124.672 184.161 129.005 187.29 134.073 184.892C134.073 184.892 133.327 182.057 135.564 171.76C137.8 161.463 137.804 156.241 137.804 156.241C137.804 156.241 137.804 143.406 138.847 141.316C139.89 139.227 138.847 134.005 138.847 134.005C138.847 134.005 136.757 131.17 136.908 130.127C137.058 129.084 131.087 137.438 131.087 137.438Z" fill="#FF6484"/>
<path opacity="0.1" d="M169.29 139.675C169.29 139.675 167.351 156.387 161.678 159.524C161.678 159.524 174.362 155.943 169.29 139.675Z" fill="black"/>
<path opacity="0.1" d="M140.789 141.169C140.789 141.169 147.8 144.599 146.165 146.986C144.531 149.373 140.789 141.169 140.789 141.169Z" fill="black"/>
<path opacity="0.1" d="M140.789 148.033C140.789 148.033 145.266 152.66 144.373 154.301C143.481 155.943 140.789 148.033 140.789 148.033Z" fill="black"/>
<path opacity="0.1" d="M176.899 109.683C176.899 109.683 178.656 112.665 178.824 114.607C178.992 116.55 176.899 109.683 176.899 109.683Z" fill="black"/>
<path opacity="0.1" d="M176.899 105.654C176.899 105.654 177.781 104.905 180.032 105.654C182.283 106.403 176.899 105.654 176.899 105.654Z" fill="black"/>
<path opacity="0.1" d="M168.283 192.874C164.586 193.398 160.815 192.915 157.369 191.476L155.488 196.293L155.28 194.064C155.588 192.193 156.187 190.189 157.369 189.684C157.369 189.684 161.513 192.985 168.283 192.874Z" fill="black"/>
<path opacity="0.1" d="M137.671 199.142C137.671 199.142 146.85 201.046 149.423 200.709L137.671 199.142Z" fill="black"/>
<path opacity="0.1" d="M138.624 201.547C138.624 201.547 142.542 201.379 144.499 202.164L138.624 201.547Z" fill="black"/>
<path opacity="0.1" d="M139.073 203.171C140.86 203.551 142.674 203.79 144.499 203.888L139.073 203.171Z" fill="black"/>
<path opacity="0.1" d="M138.847 223.708C139.015 223.597 146.682 221.805 147.635 223.092L138.847 223.708Z" fill="black"/>
<path opacity="0.1" d="M138.847 226.059C138.847 226.059 145.506 225.274 145.674 226.059C145.843 226.844 138.847 226.059 138.847 226.059Z" fill="black"/>
<path opacity="0.1" d="M138.847 228.185C138.847 228.185 145.954 226.715 146.793 227.074C147.631 227.432 138.847 228.185 138.847 228.185Z" fill="black"/>
<path opacity="0.1" d="M139.184 278.327L131.126 283.868C131.126 283.868 131.173 283.219 131.252 282.266C133.044 277.857 135.377 275.531 135.377 275.531C137.194 275.058 138.341 275.495 139.055 276.352C139.083 277.542 139.184 278.327 139.184 278.327Z" fill="black"/>
<path d="M139.968 283.305C138.83 285.903 138.257 288.713 138.288 291.548C138.333 293.874 137.743 296.168 136.581 298.183C136.413 298.467 136.224 298.737 136.015 298.993C136.015 298.993 130.417 298.946 128.456 297.323C128.236 297.148 128.056 296.928 127.929 296.677C126.808 294.441 130.112 285.878 130.112 285.878C131.847 279.276 135.37 275.75 135.37 275.75C141.646 274.126 139.968 283.305 139.968 283.305Z" fill="#444053"/>
<path opacity="0.1" d="M136.582 298.165C136.413 298.449 136.224 298.719 136.015 298.975C136.015 298.975 130.417 298.928 128.456 297.305C129.42 294.115 132.496 284.463 133.936 286.104C135.291 287.645 136.234 295.061 136.582 298.165Z" fill="black"/>
<path d="M135.814 286.703L135.424 301.161H137.302C137.302 301.161 137.607 288.477 138.445 286.703C139.284 284.929 135.814 286.703 135.814 286.703Z" fill="#444053"/>
<path opacity="0.1" d="M159.162 287.893C159.162 287.893 150.936 280.115 151.775 279.499C152 279.334 152.223 278.671 152.427 277.789C154.008 277.513 156.728 278.172 158.979 284.488C159.032 286.28 159.162 287.893 159.162 287.893Z" fill="black"/>
<path d="M160.391 296.566C160.328 296.593 160.262 296.613 160.194 296.624C159.226 296.792 155.66 296.695 153.663 296.624C153.298 296.611 152.951 296.458 152.696 296.195C152.441 295.932 152.299 295.581 152.298 295.215C152.298 294.677 152.298 294.021 152.255 293.323C152.162 291.115 151.897 288.488 151.104 287.896C149.703 286.821 148.596 283.172 151.104 278.552C151.104 278.552 155.914 274.879 159.384 285.921C159.384 285.921 159.721 289.072 161.23 290.19C162.738 291.308 161.065 296.247 160.391 296.566Z" fill="#444053"/>
<path opacity="0.1" d="M160.187 296.623C159.219 296.792 155.653 296.695 153.656 296.623C153.29 296.611 152.944 296.458 152.689 296.195C152.434 295.932 152.291 295.581 152.291 295.215C152.291 294.677 152.291 294.021 152.248 293.322C152.853 290.649 153.724 287.896 154.846 287.269C154.853 287.265 158.248 286.882 160.187 296.623Z" fill="black"/>
<path d="M151.714 286.943L152.617 298.975H153.764V285.918L151.714 286.943Z" fill="#444053"/>
<path opacity="0.1" d="M154.516 78.0242C151.265 78.2662 148.118 79.2772 145.334 80.9739C144.617 81.4076 143.9 81.9345 143.603 82.7122C143.345 83.386 143.452 84.1459 143.463 84.8627C143.56 91.0346 136.678 95.7047 136.893 101.873C136.979 104.321 138.209 106.6 138.434 109.041C138.811 113.113 136.402 116.858 134.094 120.231C136.472 120.376 138.815 119.599 140.635 118.062C143.071 126.181 143.385 134.787 141.549 143.062H144.85C145.176 143.038 145.504 143.078 145.814 143.18C146.104 143.318 146.363 143.511 146.578 143.75C149.664 146.821 151.732 151.363 150.552 155.556L157.577 152.922C159.258 152.291 160.964 151.649 162.427 150.61C163.889 149.571 165.115 148.062 165.423 146.291C165.613 145.216 165.552 143.933 166.437 143.309C166.873 143.077 167.339 142.905 167.821 142.796C169.749 142.116 170.602 139.886 170.996 137.879C171.476 135.417 171.627 132.901 171.444 130.399C171.132 126.206 169.892 121.948 170.914 117.855C171.491 115.557 172.774 113.417 172.878 111.045C173.046 107.134 169.989 103.765 169.534 99.8766C169.215 97.167 170.193 94.4251 169.874 91.7155C169.697 90.317 169.186 88.9818 168.383 87.8232C167.58 86.6645 166.509 85.7166 165.262 85.0598C164.398 84.6154 163.47 84.3179 162.617 83.8269C160.67 82.6979 159.427 80.6657 157.66 79.2679C155.893 77.8701 152.95 77.3432 151.62 79.1604L154.516 78.0242Z" fill="black"/>
<path d="M154.516 77.5762C151.265 77.8182 148.118 78.8292 145.334 80.5259C144.617 80.9596 143.9 81.4864 143.603 82.2642C143.345 82.938 143.452 83.6978 143.463 84.4147C143.56 90.5865 136.678 95.2567 136.893 101.429C136.979 103.873 138.209 106.152 138.434 108.597C138.811 112.668 136.402 116.414 134.094 119.79C136.471 119.93 138.812 119.154 140.635 117.622C143.07 125.737 143.385 134.342 141.549 142.614H144.85C145.176 142.591 145.504 142.632 145.814 142.736C146.104 142.871 146.364 143.063 146.578 143.302C149.664 146.377 151.732 150.915 150.552 155.108L157.577 152.474C159.258 151.843 160.964 151.201 162.427 150.162C163.889 149.122 165.115 147.614 165.423 145.843C165.613 144.768 165.552 143.485 166.437 142.861C166.873 142.629 167.339 142.457 167.821 142.348C169.749 141.667 170.602 139.438 170.996 137.431C171.481 134.967 171.635 132.449 171.455 129.944C171.143 125.75 169.903 121.492 170.925 117.399C171.502 115.102 172.785 112.962 172.889 110.59C173.057 106.679 170 103.31 169.545 99.4214C169.226 96.7118 170.204 93.9735 169.885 91.2604C169.708 89.862 169.196 88.5271 168.393 87.3685C167.59 86.21 166.519 85.2619 165.272 84.6046C164.409 84.1602 163.48 83.8627 162.627 83.3753C160.681 82.2427 159.437 80.2105 157.67 78.8127C155.904 77.4149 152.961 76.888 151.631 78.7052L154.516 77.5762Z" fill="#925978"/>
<g opacity="0.1">
<path opacity="0.1" d="M143.456 82.9236C143.442 83.0618 143.434 83.2005 143.434 83.3394C143.445 83.2032 143.452 83.0634 143.456 82.9236Z" fill="black"/>
<path opacity="0.1" d="M169.505 97.2709C169.634 95.3713 170.057 93.4646 169.899 91.5721C169.781 93.4717 169.358 95.3785 169.505 97.2709Z" fill="black"/>
<path opacity="0.1" d="M138.434 106.715C138.227 104.493 137.191 102.414 136.947 100.196C136.898 100.602 136.88 101.012 136.893 101.421C136.979 103.841 138.18 106.102 138.424 108.511C138.483 107.914 138.487 107.313 138.434 106.715Z" fill="black"/>
<path opacity="0.1" d="M170.939 115.543C170.603 117.001 170.483 118.501 170.581 119.994C170.616 119.123 170.736 118.258 170.939 117.41C171.516 115.113 172.799 112.973 172.903 110.6C172.92 110.179 172.901 109.757 172.846 109.339C172.566 111.471 171.451 113.457 170.939 115.543Z" fill="black"/>
<path opacity="0.1" d="M140.635 115.736C139.14 116.989 137.29 117.741 135.345 117.887C134.936 118.525 134.513 119.148 134.094 119.765C136.471 119.904 138.812 119.129 140.635 117.596C141.944 121.953 142.646 126.47 142.721 131.019C142.827 125.847 142.124 120.691 140.635 115.736V115.736Z" fill="black"/>
<path opacity="0.1" d="M171.007 135.553C170.613 137.56 169.76 139.789 167.832 140.467C167.349 140.574 166.883 140.748 166.448 140.983C165.563 141.607 165.624 142.897 165.434 143.965C165.126 145.735 163.903 147.241 162.437 148.266C160.972 149.291 159.269 149.95 157.588 150.581L150.886 153.09C150.851 153.763 150.743 154.43 150.563 155.079L157.588 152.445C159.269 151.814 160.975 151.173 162.437 150.133C163.9 149.094 165.126 147.585 165.434 145.814C165.624 144.739 165.563 143.456 166.448 142.832C166.884 142.6 167.35 142.428 167.832 142.32C169.76 141.639 170.613 139.409 171.007 137.402C171.415 135.314 171.585 133.185 171.512 131.058C171.465 132.568 171.296 134.071 171.007 135.553V135.553Z" fill="black"/>
<path opacity="0.1" d="M146.588 141.413C146.375 141.173 146.115 140.979 145.825 140.843C145.514 140.741 145.187 140.7 144.861 140.721H141.933C141.818 141.345 141.696 141.969 141.574 142.589H144.875C145.201 142.566 145.529 142.607 145.839 142.71C146.13 142.845 146.389 143.038 146.603 143.277C148.861 145.528 150.57 148.56 150.864 151.671C151.226 147.95 149.298 144.123 146.588 141.413Z" fill="black"/>
</g>
<path opacity="0.1" d="M130.213 153.628C130.213 153.628 132.879 152.509 133.474 153.628C134.069 154.746 130.213 153.628 130.213 153.628Z" fill="black"/>
<path opacity="0.1" d="M131.155 155.545C131.155 155.545 133.822 154.427 134.42 155.545C135.019 156.663 131.155 155.545 131.155 155.545Z" fill="black"/>
<path opacity="0.1" d="M296.423 10.8361C296.423 10.8361 282.785 10.0154 284.394 19.5706C284.394 19.5706 284.075 21.2588 285.606 22.0258C285.606 22.0258 285.631 21.3089 287.004 21.5562C287.492 21.6385 287.989 21.6626 288.484 21.6279C289.151 21.5817 289.786 21.3187 290.29 20.8788V20.8788C290.29 20.8788 294.122 19.2982 295.613 13.0332C295.613 13.0332 296.717 11.6641 296.688 11.3128L294.387 12.2984C294.387 12.2984 295.172 13.9579 294.552 15.3378C294.552 15.3378 294.48 12.3558 294.036 12.4275C293.946 12.4275 292.842 13.0009 292.842 13.0009C292.842 13.0009 294.193 15.8933 293.172 17.9972C293.172 17.9972 293.559 14.4346 292.419 13.2124L290.792 14.1765C290.792 14.1765 292.373 17.1621 291.301 19.5993C291.301 19.5993 291.577 15.8611 290.452 14.4059L288.982 15.5492C288.982 15.5492 290.469 18.4775 289.573 20.4989C289.573 20.4989 289.455 16.1442 288.674 15.8181C288.674 15.8181 287.391 16.9506 287.197 17.4166C287.197 17.4166 288.211 19.5671 287.581 20.6781C287.581 20.6781 287.194 17.7822 286.864 17.7678C286.864 17.7678 285.584 19.6889 285.452 20.9935C285.514 19.7762 285.893 18.5962 286.552 17.5707C285.814 17.7104 285.133 18.0644 284.595 18.5886C284.595 18.5886 284.792 17.2302 286.867 17.1083C286.867 17.1083 287.925 15.6532 288.208 15.5636C288.208 15.5636 286.143 15.3915 284.893 15.9471C284.893 15.9471 285.993 14.664 288.588 15.2303L290.021 14.0475C290.021 14.0475 287.305 13.6891 286.151 14.0869C286.151 14.0869 287.477 12.9543 290.412 13.7787L291.989 12.8361C291.989 12.8361 289.674 12.3343 288.294 12.5171C288.294 12.5171 289.749 11.7322 292.451 12.5816L293.58 12.0762C293.58 12.0762 291.882 11.7429 291.387 11.6891C290.892 11.6354 290.864 11.4992 290.864 11.4992C291.938 11.3203 293.042 11.4444 294.05 11.8576C294.05 11.8576 296.462 10.9867 296.423 10.8361Z" fill="#3499D6"/>
<path opacity="0.1" d="M276.986 3.08728C276.986 3.08728 265.517 10.51 272.474 17.2517C272.474 17.2517 273.216 18.8001 274.904 18.5134C274.904 18.5134 274.502 17.9256 275.753 17.3055C276.197 17.0822 276.612 16.8067 276.99 16.4847C277.5 16.0516 277.856 15.4642 278.004 14.811V14.811C278.004 14.811 280.154 11.2627 277.645 5.33453C277.645 5.33453 277.724 3.57831 277.481 3.32025L276.212 5.47072C276.212 5.47072 277.828 6.34167 278.147 7.81833C278.147 7.81833 276.323 5.46356 275.997 5.78254C275.932 5.84706 275.373 6.95455 275.373 6.95455C275.373 6.95455 278.18 8.48139 278.599 10.7788C278.599 10.7788 276.807 7.67855 275.155 7.37389L274.409 9.09427C274.409 9.09427 277.456 10.5638 278.036 13.1623C278.036 13.1623 276.04 9.98672 274.273 9.48136L273.771 11.2734C273.771 11.2734 276.71 12.7644 277.18 14.9292C277.18 14.9292 274.506 11.4956 273.681 11.7035C273.681 11.7035 273.323 13.3737 273.438 13.854C273.438 13.854 275.524 14.9722 275.681 16.2554C275.681 16.2554 273.653 14.1515 273.391 14.3271C273.391 14.3271 273.499 16.6317 274.169 17.7714C273.499 16.7538 273.106 15.5789 273.029 14.3629C272.517 14.9127 272.178 15.6007 272.054 16.3414C272.054 16.3414 271.409 15.1299 273.011 13.8038C273.011 13.8038 273.011 12.0118 273.173 11.7644C273.173 11.7644 271.409 12.8397 270.728 14.0368C270.728 14.0368 270.857 12.3522 273.291 11.2842L273.757 9.47419C273.757 9.47419 271.348 10.786 270.664 11.8003C270.664 11.8003 271.061 10.1014 273.911 9.02618L274.628 7.33089C274.628 7.33089 272.477 8.30218 271.459 9.26631C271.459 9.26631 272.176 7.76815 274.85 6.8542L275.459 5.77896C275.459 5.77896 273.893 6.51729 273.463 6.76818C273.033 7.01907 272.929 6.92588 272.929 6.92588C273.688 6.14458 274.65 5.58988 275.706 5.32377C275.706 5.32377 277.108 3.18764 276.986 3.08728Z" fill="#3499D6"/>
<path opacity="0.1" d="M259.531 11.7357C259.531 11.7357 252.675 23.5634 261.933 26.4056C261.933 26.4056 263.298 27.4486 264.671 26.4056C264.671 26.4056 264.051 26.0687 264.882 24.9468C265.171 24.5464 265.412 24.1133 265.599 23.6565C265.858 23.0385 265.91 22.3531 265.746 21.7032V21.7032C265.746 21.7032 266.051 17.5671 261.123 13.4203C261.123 13.4203 260.406 11.8218 260.047 11.7035L259.893 14.2124C259.893 14.2124 261.728 14.2554 262.685 15.4274C262.685 15.4274 259.99 14.155 259.854 14.5815C259.825 14.6676 259.829 15.9077 259.829 15.9077C259.829 15.9077 263.051 16.0044 264.485 17.861C264.485 17.861 261.474 15.9148 259.872 16.3879L259.986 18.2589C259.986 18.2589 263.366 18.1872 265.062 20.2409C265.062 20.2409 261.836 18.3162 260.044 18.6674L260.402 20.4918C260.402 20.4918 263.7 20.4918 265.097 22.205C265.097 22.205 261.155 20.3556 260.513 20.9039C260.513 20.9039 260.947 22.5598 261.277 22.9433C261.277 22.9433 263.642 22.9935 264.366 24.0651C264.366 24.0651 261.603 23.1082 261.449 23.3877C261.449 23.3877 262.592 25.3913 263.707 26.1009C262.649 25.5014 261.766 24.6367 261.144 23.592C260.938 24.3138 260.948 25.0801 261.173 25.7963C261.173 25.7963 260.047 25.0113 260.872 23.101C260.872 23.101 260.047 21.5025 260.094 21.2122C260.094 21.2122 259.019 22.9792 258.947 24.3447C258.947 24.3447 258.295 22.7856 259.979 20.7319L259.574 18.904C259.574 18.904 258.022 21.1656 257.872 22.3806C257.872 22.3806 257.456 20.6853 259.51 18.4381L259.374 16.6066C259.374 16.6066 257.89 18.4524 257.431 19.7678C257.431 19.7678 257.381 18.1119 259.356 16.0797L259.409 14.8432C259.409 14.8432 258.334 16.2087 258.08 16.6352C257.825 17.0618 257.675 17.0008 257.675 17.0008C257.998 15.9592 258.603 15.0275 259.424 14.3092C259.424 14.3092 259.682 11.768 259.531 11.7357Z" fill="#3499D6"/>
<path d="M318.401 146.563C317.386 146.563 316.394 146.864 315.551 147.428C314.708 147.991 314.05 148.792 313.662 149.73C313.274 150.667 313.172 151.698 313.37 152.693C313.568 153.688 314.057 154.602 314.774 155.319C315.491 156.036 316.405 156.525 317.4 156.723C318.395 156.921 319.426 156.819 320.363 156.431C321.3 156.043 322.101 155.385 322.665 154.542C323.229 153.698 323.529 152.707 323.529 151.692C323.526 150.333 322.984 149.031 322.023 148.07C321.062 147.109 319.76 146.567 318.401 146.563V146.563ZM303.405 106.317V111.446H308.533L317.766 130.148L313.906 136.431C313.485 137.174 313.264 138.014 313.264 138.868C313.264 142.302 315.612 143.997 318.795 143.997H348.783V139.065H319.422C319.336 139.071 319.251 139.058 319.17 139.027C319.09 138.997 319.017 138.95 318.957 138.889C318.896 138.828 318.849 138.756 318.819 138.675C318.788 138.595 318.775 138.509 318.78 138.424C318.848 138.202 318.939 137.988 319.053 137.786L321.615 133.739H340.722C341.646 133.747 342.553 133.5 343.345 133.025C344.136 132.55 344.782 131.866 345.21 131.048L354.446 115.166C354.626 114.763 354.714 114.325 354.704 113.883C354.701 113.553 354.631 113.227 354.499 112.925C354.367 112.622 354.176 112.349 353.936 112.122C353.697 111.895 353.415 111.718 353.106 111.602C352.797 111.486 352.468 111.433 352.138 111.446H314.178L311.741 106.317H303.405ZM343.651 146.563C342.636 146.564 341.645 146.866 340.802 147.43C339.959 147.994 339.302 148.795 338.915 149.732C338.527 150.669 338.426 151.7 338.624 152.695C338.823 153.69 339.311 154.603 340.029 155.32C340.746 156.037 341.66 156.525 342.655 156.723C343.65 156.92 344.681 156.819 345.618 156.43C346.555 156.042 347.356 155.385 347.919 154.541C348.482 153.698 348.783 152.707 348.783 151.692C348.779 150.333 348.237 149.03 347.275 148.069C346.314 147.107 345.01 146.566 343.651 146.563V146.563Z" fill="#3499D6"/>
<path d="M337.088 120.507H332.787V116.206H329.562V120.507H325.261V123.732H329.562V128.033H332.787V123.732H337.088V120.507Z" fill="white"/>
<defs>
<linearGradient id="paint0_linear" x1="219.439" y1="212.106" x2="219.439" y2="34.2477" gradientUnits="userSpaceOnUse">
<stop stop-color="#808080" stop-opacity="0.25"/>
<stop offset="0.54" stop-color="#808080" stop-opacity="0.12"/>
<stop offset="1" stop-color="#808080" stop-opacity="0.1"/>
</linearGradient>
</defs>
</svg>
