<svg width="486" height="336" viewBox="0 0 486 336" fill="none" xmlns="http://www.w3.org/2000/svg">
<path d="M455.078 187.574C476.31 144.678 434.851 152.438 418.663 128.054C400.06 100.033 403.516 99.6018 395.324 69.5738C384.962 31.5922 356.151 23.2719 326.745 28.5366C301.568 28.5366 273.95 50.1957 266.739 46.9115C225.02 64.6738 224.503 31.366 212.884 23.0242C172.443 -6.0096 137.011 78.5147 110.722 93.8271C84.4336 109.139 57.8124 114.58 50.0147 133.007C39.7362 157.295 47.3665 165.173 60.4868 170.954C80.6887 179.855 85.5614 202.976 70.6656 217.78C40.7339 247.531 12.4789 291.493 71.669 301.225C130.644 310.922 156.977 311.986 212.884 313.494C221.606 313.729 232.61 311.762 245.007 309.796C260.873 307.28 279.022 304.764 297.593 306.863C350.517 312.843 407.468 315.475 427.289 290.935C434.284 282.277 421.527 269.272 413.546 247.826C405.985 227.501 446.557 204.791 455.078 187.574Z" fill="#329CD5" fill-opacity="0.1"/>
<path d="M65.3054 242.371L59.0554 232.272C61.0748 227.026 63.3884 221.898 65.9852 216.913L70.0886 220.366L66.8885 215.196C70.1608 209.063 72.716 205.209 72.716 205.209C72.716 205.209 85.2426 225.856 89.1303 247.528L80.5952 260.154L89.9079 252.937C90.1837 255.458 90.3006 257.994 90.258 260.529C89.7435 286.093 80.9774 306.648 70.6785 306.441C60.3795 306.233 52.4477 285.342 52.9622 259.779C53.1217 251.854 55.0815 243.599 57.709 235.979L65.3054 242.371Z" fill="#329CD5"/>
<path d="M37.0253 253.645L26.4551 248.23C25.4721 242.696 24.8022 237.11 24.4483 231.5L29.7457 232.335L24.3337 229.563C23.9651 222.622 24.1604 218.002 24.1604 218.002C24.1604 218.002 45.5557 229.202 60.0856 245.744L59.3056 260.964L63.5471 249.973C65.0862 251.988 66.497 254.098 67.7712 256.291C80.5443 278.44 83.6651 300.568 74.7418 305.714C65.8184 310.86 48.2301 297.076 35.457 274.927C31.4972 268.06 28.9078 259.98 27.2184 252.099L37.0253 253.645Z" fill="#05598B"/>
<path d="M90.1 335.395C77.9201 336.174 64.6488 335.35 50.5304 335.395V303.071C62.9711 305.007 76.2379 304.808 90.1 303.071V335.395Z" fill="#F98B00"/>
<path d="M377.193 187.545L247.936 208.358L247.388 82.6957L376.646 0L377.193 187.545Z" fill="#E6E6E6"/>
<path d="M365.144 168.923L253.413 193.022V87.8618L365.144 27.2178V168.923Z" fill="white"/>
<path d="M354.19 72.5263L259.985 114.713V99.9114L354.19 53.3721V72.5263Z" fill="#3F3D56"/>
<path d="M354.19 111.961L259.985 145.189V130.584L354.19 93.0618V111.961Z" fill="#329CD5"/>
<path d="M296.382 93.662C296.4 93.5873 296.442 93.5206 296.502 93.4721C296.562 93.4236 296.636 93.396 296.713 93.3935C296.79 93.391 296.865 93.4137 296.928 93.4581C296.991 93.5025 297.038 93.5663 297.061 93.6396L298.586 98.4469L300.413 104.206C300.44 104.29 300.434 104.381 300.397 104.461C300.36 104.541 300.294 104.605 300.213 104.639L296.681 106.11L293.578 107.403C293.518 107.428 293.451 107.436 293.387 107.426C293.322 107.416 293.262 107.388 293.212 107.345C293.163 107.303 293.126 107.247 293.106 107.185C293.086 107.123 293.084 107.056 293.099 106.993L294.797 100.098L296.382 93.662Z" fill="#E6E6E6"/>
<path d="M290.716 129.506C290.746 129.383 290.816 129.273 290.915 129.193C291.013 129.113 291.136 129.067 291.262 129.063C291.389 129.059 291.514 129.096 291.618 129.17C291.722 129.243 291.799 129.348 291.837 129.469L293.116 133.499L294.879 139.057C294.923 139.196 294.914 139.347 294.852 139.479C294.791 139.611 294.683 139.715 294.548 139.771L291.211 141.162L288.527 142.28C288.428 142.322 288.319 142.335 288.212 142.318C288.106 142.301 288.006 142.255 287.924 142.185C287.842 142.114 287.781 142.023 287.748 141.92C287.716 141.818 287.712 141.708 287.738 141.603L289.326 135.15L290.716 129.506Z" fill="#E6E6E6"/>
<path d="M354.19 151.397L259.985 175.664V160.16L354.19 131.334V151.397Z" fill="#F2F2F2"/>
<path d="M351.999 83.1809C351.999 86.4796 350.521 89.7593 348.713 90.5006C346.92 91.2354 345.479 89.1945 345.479 85.948C345.479 82.7016 346.92 79.4371 348.713 78.6504C350.521 77.8568 351.999 79.8823 351.999 83.1809Z" fill="#3F3D56"/>
<path d="M349.808 84.1108C349.808 85.2103 349.317 86.3077 348.713 86.5612C348.11 86.8139 347.623 86.1317 347.623 85.038C347.623 83.9443 348.11 82.8486 348.713 82.59C349.317 82.3307 349.808 83.0112 349.808 84.1108Z" fill="white"/>
<path d="M351.999 121.521C351.999 124.819 350.521 128.099 348.713 128.84C346.92 129.575 345.479 127.534 345.479 124.288C345.479 121.041 346.92 117.777 348.713 116.99C350.521 116.197 351.999 118.222 351.999 121.521Z" fill="#329CD5"/>
<path d="M349.808 122.451C349.808 123.55 349.317 124.648 348.713 124.901C348.11 125.154 347.623 124.472 347.623 123.378C347.623 122.284 348.11 121.188 348.713 120.93C349.317 120.671 349.808 121.351 349.808 122.451Z" fill="white"/>
<path d="M351.999 159.861C351.999 163.159 350.521 166.439 348.713 167.18C346.92 167.915 345.479 165.874 345.479 162.628C345.479 159.381 346.92 156.117 348.713 155.33C350.521 154.536 351.999 156.562 351.999 159.861Z" fill="#F2F2F2"/>
<path d="M349.808 160.79C349.808 161.89 349.317 162.987 348.713 163.241C348.11 163.493 347.623 162.811 347.623 161.717C347.623 160.624 348.11 159.528 348.713 159.269C349.317 159.01 349.808 159.691 349.808 160.79Z" fill="white"/>
<path d="M299.473 161.275C299.503 161.152 299.573 161.042 299.671 160.962C299.77 160.882 299.892 160.836 300.019 160.832C300.146 160.828 300.271 160.865 300.375 160.938C300.478 161.012 300.555 161.117 300.594 161.238L301.872 165.268L303.636 170.826C303.68 170.965 303.67 171.115 303.609 171.248C303.548 171.38 303.439 171.484 303.305 171.54L299.968 172.931L297.284 174.049C297.185 174.09 297.075 174.103 296.969 174.087C296.862 174.07 296.763 174.024 296.681 173.953C296.599 173.883 296.538 173.792 296.505 173.689C296.472 173.586 296.468 173.477 296.494 173.372L298.083 166.919L299.473 161.275Z" fill="#E6E6E6"/>
<path d="M277.238 154.536L282.334 149.835C282.334 149.835 293.87 141.889 289.84 137.521C285.811 133.153 277.69 143.339 277.69 143.339L272.65 146.641L277.238 154.536Z" fill="#A0616A"/>
<path d="M209.861 156.723L206.893 160.809C206.893 160.809 202.744 176.763 223.738 177.61C223.738 177.61 250.549 190.608 257.186 182.465C263.823 174.321 282.136 154.733 282.136 154.733L271.363 143.785L249.41 166.73L228.112 156.058C228.112 156.058 217.141 150.008 209.861 156.723Z" fill="#2F2E41"/>
<path d="M195.891 232.431L168.094 334.842L171.596 335.542L200.793 232.431H195.891Z" fill="#E6E6E6"/>
<path d="M229.588 232.431L257.384 334.842L253.883 335.542L224.685 232.431H229.588Z" fill="#E6E6E6"/>
<path d="M210.597 230.33L215.259 335.013L219.307 335.193L214.099 228.928L210.597 230.33Z" fill="#E6E6E6"/>
<path d="M223.555 228.673C223.555 231.328 216.286 234.179 206.746 235.095C196.507 236.078 187.639 234.482 187.639 231.464C187.639 228.445 196.507 225.472 206.746 224.864C216.286 224.297 223.555 226.018 223.555 228.673Z" fill="#E6E6E6"/>
<path d="M233.709 210.719L240.713 215.622C240.713 215.622 270.828 237.333 268.027 245.737C265.226 254.142 249.818 287.759 249.818 287.759L230.207 281.456L252.619 245.737L240.713 234.531L234.41 219.123L233.709 210.719Z" fill="#2F2E41"/>
<path d="M206.395 198.113C206.395 198.113 192.388 219.824 200.793 226.127C209.197 232.431 233.009 256.943 233.009 256.943L237.911 268.149L255.42 324.879L277.131 313.673L257.521 269.55C257.521 269.55 255.42 253.441 248.416 244.337C241.413 235.232 238.612 221.925 238.612 221.925L240.713 215.622L228.173 195.557L206.395 198.113Z" fill="#2F2E41"/>
<path d="M244.483 283.746L231.895 279.915C231.895 279.915 218.301 279.355 219.002 284.257C219.702 289.16 230.908 321.377 234.41 319.276C237.912 317.175 235.11 307.37 235.11 307.37L244.483 283.746Z" fill="#2F2E41"/>
<path d="M216.55 129.827L209.547 137.531L220.753 155.741L225.655 141.733L216.55 129.827Z" fill="#A0616A"/>
<path d="M223.204 156.791L210.765 136.192L206.395 137.181V144.185L204.995 203.015L228.107 199.513C228.107 199.513 229.507 161.694 223.204 156.791Z" fill="#329CD5"/>
<path d="M216.901 156.091L206.395 137.181L197.291 141.383L181.183 207.217L171.378 226.127C171.378 226.127 203.594 242.236 211.298 226.127C219.002 210.019 219.702 174.3 219.702 174.3L216.901 156.091Z" fill="#2F2E41"/>
<path d="M201.494 144.185L197.291 141.383C197.291 141.383 181.183 137.881 181.183 158.892C181.183 158.892 169.277 186.206 177.681 192.51C186.085 198.813 206.396 216.322 206.396 216.322L216.902 205.116L193.089 184.105L202.894 162.394C202.894 162.394 208.497 151.188 201.494 144.185Z" fill="#2F2E41"/>
<path d="M206.395 211.42L211.298 216.322C211.298 216.322 219.702 227.528 223.905 223.326C228.107 219.124 217.601 211.42 217.601 211.42L214.099 206.517L206.395 211.42Z" fill="#A0616A"/>
<path d="M222.392 150.435L234.41 179.903C234.41 179.903 239.312 194.611 239.312 200.213V215.621L226.005 198.112C226.005 198.112 218.778 152.484 222.392 150.435Z" fill="#2F2E41"/>
<path d="M260.655 319.293C260.655 319.293 257.185 332.954 261.739 334.11C266.292 335.267 304.499 336.245 304.524 329.788C304.548 323.331 279.727 317.997 279.727 317.997L270.557 312.113L260.655 319.293Z" fill="#2F2E41"/>
<path d="M225.305 142.784C232.268 142.784 237.912 137.14 237.912 130.177C237.912 123.215 232.268 117.571 225.305 117.571C218.343 117.571 212.699 123.215 212.699 130.177C212.699 137.14 218.343 142.784 225.305 142.784Z" fill="#A0616A"/>
<path d="M238.748 127.914C238.748 127.914 241.21 117.243 238.748 114.781V116.422C238.748 116.422 237.106 110.677 233.823 112.318C233.823 112.318 229.719 109.035 228.898 110.677C224.069 106.31 202.653 110.404 213.049 133.329C213.049 133.329 214.944 126.272 214.944 128.734C214.944 128.734 219.869 123.81 220.69 122.168C221.511 120.526 235.465 131.197 238.748 127.914Z" fill="#2F2E41"/>
<path d="M486 334.774H0V336H486V334.774Z" fill="#3F3D56"/>
<path d="M82.222 233.5C82.222 233.5 7.52956 216.651 40.3235 156.239C80.1934 82.7922 220.738 192.835 247.222 45" stroke="#5F9DC1" stroke-dasharray="2 6"/>
</svg>
