<svg width="263" height="58" viewBox="0 0 263 58" fill="none" xmlns="http://www.w3.org/2000/svg">
<path d="M163.618 16.0952C164.452 17.0305 165.661 17.4982 167.245 17.4982C168.829 17.4982 170.038 17.0305 170.872 16.0952C171.705 15.1598 172.122 14.0017 172.122 12.621C172.122 11.2402 171.684 10.0822 170.809 9.1468C169.975 8.21145 168.787 7.74377 167.245 7.74377C165.703 7.74377 164.494 8.23372 163.618 9.21362C162.785 10.149 162.368 11.2848 162.368 12.621C162.368 13.9572 162.785 15.1153 163.618 16.0952Z" fill="white"/>
<path d="M115.543 16.0952C116.377 17.0305 117.586 17.4982 119.17 17.4982C120.754 17.4982 121.963 17.0305 122.796 16.0952C123.63 15.1598 124.047 14.0017 124.047 12.621C124.047 11.2402 123.609 10.0822 122.734 9.1468C121.9 8.21145 120.712 7.74377 119.17 7.74377C117.627 7.74377 116.418 8.23372 115.543 9.21362C114.709 10.149 114.292 11.2848 114.292 12.621C114.292 13.9572 114.709 15.1153 115.543 16.0952Z" fill="white"/>
<path d="M109.368 34.7899C109.368 36.9446 109.046 38.8913 108.402 40.6301C107.758 42.3689 106.867 43.862 105.73 45.1094C104.593 46.319 103.247 47.2452 101.693 47.8878C100.139 48.5304 98.4526 48.8517 96.6333 48.8517C94.8519 48.8517 93.3358 48.5871 92.085 48.0579C90.8581 47.5017 89.777 46.7454 88.8418 45.789C88.807 45.7535 88.7594 45.7331 88.7096 45.7331C88.6226 45.7331 88.5476 45.7943 88.5301 45.8796L88.1626 47.6712C88.0962 47.9953 87.8109 48.228 87.4801 48.228H83.2873C82.9025 48.228 82.5905 47.916 82.5905 47.5312V8.4405C82.5905 8.0557 82.9025 7.74376 83.2873 7.74376H89.3984C89.7832 7.74376 90.0952 8.0557 90.0952 8.4405V21.8082C90.0952 22.4146 90.8365 22.7524 91.3412 22.4163C91.9725 21.996 92.6563 21.6412 93.3926 21.3519C94.6813 20.8605 96.0458 20.6148 97.4861 20.6148C101.2 20.6148 104.1 21.8622 106.185 24.357C108.307 26.8519 109.368 30.3295 109.368 34.7899ZM101.58 34.96C101.58 32.1628 101.03 30.046 99.9308 28.6096C98.8316 27.1354 97.2776 26.3982 95.2688 26.3982C94.2075 26.3982 93.2221 26.6628 92.3124 27.1921C91.4932 27.6346 90.8277 28.1385 90.3159 28.7037C90.2072 28.8237 90.152 28.9816 90.152 29.1436V41.0501C90.152 41.218 90.2113 41.3816 90.3276 41.5028C90.7906 41.9851 91.3575 42.3936 92.0282 42.728C92.8241 43.106 93.658 43.295 94.5297 43.295C95.4394 43.295 96.3111 43.1249 97.1449 42.7847C98.0167 42.4445 98.7747 41.9342 99.4191 41.2538C100.101 40.5734 100.632 39.7229 101.011 38.7023C101.39 37.6439 101.58 36.3964 101.58 34.96Z" fill="white"/>
<path d="M116.112 48.228C115.727 48.228 115.415 47.916 115.415 47.5312V21.8785C115.415 21.4937 115.727 21.1818 116.112 21.1818H122.28C122.665 21.1818 122.977 21.4937 122.977 21.8785V47.5312C122.977 47.916 122.665 48.228 122.28 48.228H116.112Z" fill="white"/>
<path d="M148.013 8.4405C148.013 8.0557 148.325 7.74376 148.71 7.74376H154.878C155.263 7.74376 155.574 8.0557 155.574 8.4405V47.5312C155.574 47.916 155.263 48.228 154.878 48.228H150.707C150.392 48.228 150.116 48.0168 150.034 47.7128L149.422 45.4441C149.396 45.347 149.308 45.2795 149.207 45.2795C149.136 45.2795 149.069 45.314 149.026 45.3712C148.347 46.2784 147.384 47.0795 146.137 47.7744C144.886 48.4926 143.237 48.8517 141.191 48.8517C139.485 48.8517 137.893 48.5304 136.415 47.8878C134.937 47.2452 133.648 46.319 132.549 45.1094C131.45 43.8998 130.578 42.4256 129.934 40.6868C129.327 38.948 129.024 36.9635 129.024 34.7332C129.024 32.5786 129.308 30.6319 129.877 28.8931C130.445 27.1543 131.26 25.68 132.322 24.4704C133.383 23.223 134.69 22.278 136.244 21.6354C137.798 20.955 139.58 20.6148 141.589 20.6148C142.877 20.6148 144.09 20.8038 145.227 21.1818C145.784 21.3608 146.285 21.5652 146.731 21.795C147.264 22.0702 148.013 21.708 148.013 21.1072V8.4405ZM148.013 28.5173C148.013 28.3569 147.959 28.2004 147.852 28.081C147.383 27.5579 146.792 27.1104 146.08 26.7385C145.284 26.3226 144.412 26.1147 143.465 26.1147C142.555 26.1147 141.683 26.2659 140.85 26.5683C140.054 26.8708 139.333 27.3622 138.689 28.0426C138.083 28.6852 137.59 29.5546 137.211 30.6508C136.832 31.7092 136.642 33.0133 136.642 34.5631C136.642 36.0751 136.813 37.3793 137.154 38.4755C137.495 39.5717 137.95 40.4789 138.519 41.1971C139.087 41.9153 139.75 42.4445 140.508 42.7847C141.304 43.1249 142.138 43.295 143.01 43.295C144.223 43.295 145.246 43.0115 146.08 42.4445C146.896 41.8783 147.513 41.2292 147.93 40.4973C147.986 40.3993 148.013 40.2876 148.013 40.1747V28.5173Z" fill="white"/>
<path d="M164.284 48.228C163.899 48.228 163.587 47.916 163.587 47.5312V21.8786C163.587 21.4938 163.899 21.1818 164.284 21.1818H170.442C170.826 21.1818 171.138 21.4938 171.138 21.8786V47.5312C171.138 47.916 170.826 48.228 170.442 48.228H164.284Z" fill="white"/>
<path d="M186.467 38.9518C186.336 39.0825 186.262 39.2598 186.262 39.4448V47.5312C186.262 47.916 185.95 48.228 185.565 48.228H179.464C179.079 48.228 178.767 47.916 178.767 47.5312V8.44052C178.767 8.05572 179.079 7.74377 179.464 7.74377H185.565C185.95 7.74377 186.262 8.05572 186.262 8.44052V29.9007C186.262 30.5477 187.067 30.8453 187.488 30.3541L195.138 21.4252C195.27 21.2707 195.464 21.1818 195.667 21.1818H202.904C203.51 21.1818 203.827 21.9025 203.417 22.3494L194.419 32.1663C194.198 32.4072 194.174 32.7691 194.361 33.0368L204.231 47.1316C204.554 47.5934 204.224 48.228 203.66 48.228H196.455C196.224 48.228 196.007 48.1128 195.878 47.9208L188.949 37.645C188.704 37.2818 188.189 37.232 187.879 37.5415L186.467 38.9518Z" fill="white"/>
<path d="M209.414 24.1541C209.241 23.8236 209.359 23.4145 209.687 23.2373C211.141 22.4514 212.67 21.8419 214.272 21.4086C216.089 20.8794 218.019 20.6148 220.063 20.6148C221.691 20.6148 223.167 20.8038 224.492 21.1818C225.854 21.5598 227.009 22.1646 227.955 22.9962C228.939 23.79 229.677 24.8295 230.169 26.1148C230.699 27.3622 230.964 28.8742 230.964 30.6508V47.5312C230.964 47.916 230.652 48.228 230.268 48.228H225.663C225.342 48.228 225.062 48.0088 224.986 47.6972L224.469 45.5873C224.449 45.5065 224.376 45.4496 224.293 45.4496C224.239 45.4496 224.188 45.4739 224.153 45.5153C223.291 46.5425 222.192 47.3522 220.858 47.9445C219.533 48.5493 217.981 48.8517 216.202 48.8517C214.726 48.8517 213.42 48.6438 212.284 48.228C211.149 47.7744 210.184 47.1885 209.389 46.4703C208.594 45.7143 207.988 44.8259 207.572 43.8053C207.193 42.7847 207.004 41.6885 207.004 40.5167C207.004 38.9669 207.326 37.6439 207.969 36.5477C208.651 35.4137 209.578 34.4875 210.751 33.7693C211.925 33.0511 213.288 32.5219 214.839 32.1817C216.429 31.8415 218.133 31.6714 219.949 31.6714H222.659C223.044 31.6714 223.356 31.3595 223.356 30.9747V30.0271C223.356 28.7797 222.959 27.8725 222.164 27.3055C221.407 26.7007 220.328 26.3983 218.927 26.3983C217.83 26.3983 216.694 26.5684 215.521 26.9086C214.557 27.1974 213.497 27.6362 212.342 28.2249C211.996 28.4012 211.569 28.2717 211.389 27.9277L209.414 24.1541ZM223.413 37.0907C223.413 36.6995 223.091 36.385 222.7 36.3941L220.971 36.4343C218.662 36.5099 217.054 36.9068 216.145 37.625C215.237 38.3054 214.783 39.137 214.783 40.1198C214.783 41.405 215.161 42.2933 215.918 42.7847C216.713 43.2383 217.603 43.4651 218.587 43.4651C219.571 43.4651 220.498 43.1816 221.369 42.6146C222.211 42.0889 222.858 41.4819 223.31 40.7937C223.379 40.688 223.413 40.5633 223.413 40.4369V37.0907Z" fill="white"/>
<path d="M244.924 47.5312C244.924 47.916 244.612 48.228 244.227 48.228H238.069C237.684 48.228 237.372 47.916 237.372 47.5312V21.8786C237.372 21.4938 237.684 21.1818 238.069 21.1818H242.74C243.056 21.1818 243.333 21.3953 243.414 21.7016L243.872 23.447C244.01 23.9716 244.672 24.1477 245.079 23.7898C246.077 22.9129 247.142 22.2137 248.273 21.6921C249.788 20.9739 251.453 20.6148 253.27 20.6148C256.26 20.6148 258.55 21.4275 260.14 23.0529C261.73 24.6783 262.525 27.0409 262.525 30.1405V47.5312C262.525 47.916 262.213 48.228 261.828 48.228H255.67C255.285 48.228 254.973 47.916 254.973 47.5312V30.9343C254.973 29.5357 254.633 28.4395 253.951 27.6457C253.27 26.8141 252.267 26.3983 250.942 26.3983C249.958 26.3983 248.917 26.6818 247.819 27.2488C246.835 27.7404 245.932 28.4116 245.11 29.2622C244.989 29.388 244.924 29.5572 244.924 29.7321V47.5312Z" fill="white"/>
<path d="M0 50.0427C0 50.0427 13.9736 28.0972 40.501 31.2981C40.501 31.2981 56.3153 32.7577 58.0811 17.3264C58.0811 17.3264 56.1519 13.3866 53.9958 0C53.9958 0 60.5543 15.453 76.0972 6.01949C76.0972 6.01949 71.6949 12.8476 61.8121 18.0585C61.8121 18.0585 66.1821 28.4803 55.6549 41.9648C55.6549 41.9648 44.4245 44.6645 29.0613 54.9965C19.496 58.3082 6.37884 58.1285 0 50.0427Z" fill="#DADADA"/>
<path d="M16.2688 47.2049C19.7951 45.2647 27.3785 39.7696 28.951 37.2852C29.1547 36.9636 29.5422 36.8573 29.924 36.8425C30.4556 36.822 30.9765 36.9784 30.9765 36.9784C30.9765 36.9784 32.8969 37.7918 30.9764 42.9129C29.056 48.0339 23.413 48.7876 16.2688 47.2049Z" fill="white"/>
<path d="M30.2304 39.3548C30.0902 39.8742 29.5727 40.1576 29.0748 39.9871L28.8183 39.8993C28.3199 39.7294 28.0296 39.1703 28.1697 38.6503L30.8506 28.7071C30.9895 28.1877 31.5083 27.904 32.0062 28.0745L32.2638 28.1626C32.7616 28.3328 33.0517 28.8919 32.9121 29.4113L30.2304 39.3548Z" fill="white"/>
<path d="M27.1916 20.3681C26.0107 24.18 28.1455 28.2283 31.9565 29.4085C35.7703 30.5902 39.8179 28.4568 40.998 24.6441C42.1785 20.832 40.0461 16.7844 36.2337 15.6035C35.4282 15.3539 34.6128 15.2524 33.8157 15.2832C30.8389 15.3987 28.1233 17.3612 27.1916 20.3681Z" fill="white"/>
<path d="M27.1325 37.1951C27.1325 37.1951 30.9474 36.9524 31.3552 41.238C31.3552 41.238 33.2419 36.9255 30.3651 35.9558C28.8396 35.6677 28.1995 36.4445 27.1325 37.1951Z" fill="white"/>
<path d="M59.7079 28.1108C56.5297 30.0817 53.9262 35.0614 50.6413 39.6995C48.4916 42.7248 46.1005 42.3838 45.4031 41.0301C44.6731 39.6186 45.76 37.1208 49.1253 37.4943C46.6759 33.7798 41.9652 32.8958 38.672 37.4861C34.4464 43.3739 31.0858 49.4562 24.3475 56.2842C30.9061 54.5772 34.98 53.4158 40.167 49.7425C44.9102 46.3838 49.8805 43.0252 55.0291 44.6709C44.3167 47.5901 47.1137 59.763 55.7343 50.8993C58.6221 47.9312 62.7002 45.8871 66.6915 47.8421C60.9984 48.3283 61.5891 53.7536 65.5391 53.2998C72.0276 52.5533 73.0804 45.1093 69.7163 40.5191C69.7482 43.8761 64.8262 44.4273 62.7811 41.9382C60.341 38.9701 61.8988 34.0069 65.7014 32.6928C68.191 31.8419 70.3879 33.1879 71.8725 35.2231C70.911 29.6174 67.8736 26.6834 64.2487 26.6834C62.7976 26.6829 61.2519 27.1532 59.7079 28.1108Z" fill="white"/>
</svg>
